<?xml version="1.0" standalone="no"?>
<!DOCTYPE svg PUBLIC "-//W3C//DTD SVG 20010904//EN"
 "http://www.w3.org/TR/2001/REC-SVG-20010904/DTD/svg10.dtd">
<svg version="1.0" xmlns="http://www.w3.org/2000/svg"
 width="1152.000000pt" height="648.000000pt" viewBox="0 0 1152.000000 648.000000"
 preserveAspectRatio="xMidYMid meet">
<metadata>
Created by potrace 1.14, written by Peter Selinger 2001-2017
</metadata>
<g transform="translate(0.000000,648.000000) scale(0.100000,-0.100000)"
fill="#000000" stroke="none">
<path d="M182 6359 c-43 -22 -74 -56 -92 -104 -7 -18 -10 -976 -10 -3023 l0
-2995 25 -43 c15 -26 43 -54 69 -69 l43 -25 5518 0 5519 0 44 21 c29 15 54 37
73 67 l29 46 -2 3011 -3 3011 -24 36 c-13 19 -40 46 -59 59 l-36 24 -5525 3
-5526 2 -43 -21z m10961 -192 c15 -9 35 -29 44 -44 17 -26 18 -171 18 -2873 0
-2702 -1 -2847 -18 -2873 -9 -15 -29 -35 -44 -44 -26 -17 -284 -18 -5398 -18
-5114 0 -5372 1 -5398 18 -15 9 -35 29 -44 44 -17 26 -18 172 -21 2828 -2
1540 0 2824 3 2853 8 64 43 110 95 122 19 4 2443 7 5385 6 5094 -1 5352 -2
5378 -19z"/>
</g>
</svg>
