<?xml version="1.0" standalone="no"?>
<!DOCTYPE svg PUBLIC "-//W3C//DTD SVG 20010904//EN"
 "http://www.w3.org/TR/2001/REC-SVG-20010904/DTD/svg10.dtd">
<svg version="1.0" xmlns="http://www.w3.org/2000/svg"
 width="77.000000pt" height="115.000000pt" viewBox="0 0 77.000000 115.000000"
 preserveAspectRatio="xMidYMid meet">

<g transform="translate(0.000000,115.000000) scale(0.100000,-0.100000)"
fill="#000000" stroke="none">
<path d="M0 1140 c0 -5 7 -7 15 -4 19 8 19 14 0 14 -8 0 -15 -4 -15 -10z"/>
<path d="M740 1146 c0 -2 7 -9 15 -16 12 -10 15 -10 15 4 0 9 -7 16 -15 16 -8
0 -15 -2 -15 -4z"/>
<path d="M40 990 c0 -103 1 -110 20 -110 19 0 20 7 20 110 0 103 -1 110 -20
110 -19 0 -20 -7 -20 -110z"/>
<path d="M117 1082 c-25 -28 -24 -163 1 -185 22 -20 62 -22 87 -3 20 14 33
104 21 150 -13 54 -75 75 -109 38z m68 -92 c0 -70 -1 -75 -22 -78 -22 -3 -23
-1 -23 78 0 79 1 81 23 78 21 -3 22 -8 22 -78z"/>
<path d="M95 833 c-11 -11 -15 -26 -11 -45 4 -20 2 -28 -9 -28 -42 0 -59 -64
-25 -95 17 -15 24 -16 45 -7 20 9 25 9 25 -1 0 -7 -5 -18 -12 -25 -9 -9 -6
-12 15 -12 24 0 27 3 21 25 -6 25 -5 25 20 14 22 -10 29 -9 46 6 11 10 20 28
20 40 0 24 -29 55 -52 55 -11 0 -13 8 -10 30 8 53 -37 79 -73 43z"/>
<path d="M353 460 c-30 -12 -56 -66 -48 -99 4 -14 16 -36 28 -49 l21 -22 -32
6 c-47 9 -80 -3 -97 -36 -23 -44 -19 -78 14 -111 36 -36 57 -36 105 -4 l37 25
-6 -22 c-4 -13 -13 -38 -21 -56 l-13 -32 45 0 c39 0 44 2 35 17 -5 10 -13 34
-19 54 l-10 37 35 -24 c47 -31 68 -30 104 5 37 38 38 79 2 121 -25 30 -30 32
-71 26 l-44 -6 26 31 c14 17 26 39 26 50 0 36 -29 77 -61 88 -18 6 -32 11 -33
10 -1 0 -11 -4 -23 -9z"/>
</g>
</svg>
