<?xml version="1.0" standalone="no"?>
<!DOCTYPE svg PUBLIC "-//W3C//DTD SVG 20010904//EN"
 "http://www.w3.org/TR/2001/REC-SVG-20010904/DTD/svg10.dtd">
<svg version="1.0" xmlns="http://www.w3.org/2000/svg"
 width="77.000000pt" height="115.000000pt" viewBox="0 0 77.000000 115.000000"
 preserveAspectRatio="xMidYMid meet">

<g transform="translate(0.000000,115.000000) scale(0.100000,-0.100000)"
fill="#000000" stroke="none">
<path d="M0 1140 c0 -5 7 -7 15 -4 19 8 19 14 0 14 -8 0 -15 -4 -15 -10z"/>
<path d="M740 1146 c0 -2 7 -6 15 -10 8 -3 15 -1 15 4 0 6 -7 10 -15 10 -8 0
-15 -2 -15 -4z"/>
<path d="M50 1051 l0 -49 66 6 65 5 -3 -44 c-3 -43 -4 -44 -41 -47 -26 -2 -39
1 -43 12 -8 20 -44 21 -44 2 0 -21 45 -46 82 -46 53 0 78 24 78 74 0 56 -24
79 -79 75 -22 -2 -41 0 -41 4 0 4 0 12 0 17 0 6 27 10 60 10 47 0 60 3 60 15
0 12 -16 15 -80 15 l-80 0 0 -49z"/>
<path d="M93 824 c-13 -21 -14 -30 -5 -45 10 -16 9 -19 -6 -19 -25 0 -52 -31
-52 -58 0 -32 42 -57 71 -42 20 11 21 10 15 -14 -6 -23 -3 -26 19 -26 23 0 25
2 15 21 -15 26 -7 34 19 19 31 -16 61 3 61 40 0 33 -23 60 -51 60 -16 0 -17 3
-7 19 9 15 9 25 0 45 -16 35 -56 35 -79 0z"/>
<path d="M358 459 c-23 -9 -58 -60 -58 -87 0 -5 11 -25 24 -45 l24 -35 -37 5
c-55 8 -96 -29 -96 -87 0 -34 6 -47 28 -66 35 -30 55 -30 101 1 l36 25 -6 -28
c-4 -15 -11 -35 -15 -44 -16 -30 -9 -38 32 -38 35 0 40 3 34 17 -14 34 -25 77
-21 81 3 2 18 -6 34 -18 83 -61 170 63 96 137 -21 21 -32 25 -64 20 l-38 -5
19 32 c25 41 24 79 -3 110 -28 30 -55 37 -90 25z"/>
</g>
</svg>
