<?xml version="1.0" standalone="no"?>
<!DOCTYPE svg PUBLIC "-//W3C//DTD SVG 20010904//EN"
 "http://www.w3.org/TR/2001/REC-SVG-20010904/DTD/svg10.dtd">
<svg version="1.0" xmlns="http://www.w3.org/2000/svg"
 width="77.000000pt" height="115.000000pt" viewBox="0 0 77.000000 115.000000"
 preserveAspectRatio="xMidYMid meet">

<g transform="translate(0.000000,115.000000) scale(0.100000,-0.100000)"
fill="#000000" stroke="none">
<path d="M0 1139 c0 -5 5 -7 10 -4 5 3 10 8 10 11 0 2 -4 4 -10 4 -5 0 -10 -5
-10 -11z"/>
<path d="M740 1146 c0 -2 7 -6 15 -10 8 -3 15 -1 15 4 0 6 -7 10 -15 10 -8 0
-15 -2 -15 -4z"/>
<path d="M80 1093 c-29 -10 -40 -37 -40 -99 0 -58 2 -64 29 -83 60 -43 141
-13 141 52 0 38 -30 60 -82 61 -37 1 -43 4 -46 24 -3 20 1 22 37 22 23 0 50
-5 61 -12 29 -18 39 1 11 23 -22 18 -77 24 -111 12z m94 -115 c18 -29 -4 -53
-50 -53 -33 0 -39 3 -42 23 -6 41 5 53 44 50 22 -2 42 -10 48 -20z"/>
<path d="M97 832 c-20 -22 -22 -43 -5 -60 9 -9 7 -12 -8 -12 -26 0 -54 -30
-54 -57 0 -11 9 -28 20 -38 17 -15 24 -16 46 -6 25 11 26 11 20 -14 -6 -22 -3
-25 19 -25 23 0 25 2 15 21 -14 26 -6 36 15 19 12 -10 21 -10 40 -2 45 21 23
102 -28 102 -14 0 -15 3 -5 19 9 15 9 25 0 45 -14 31 -51 35 -75 8z"/>
<path d="M361 461 c-31 -8 -64 -68 -56 -101 4 -14 16 -35 27 -47 l20 -21 -41
5 c-35 5 -44 2 -72 -26 -27 -28 -31 -37 -26 -69 7 -40 46 -82 76 -82 10 0 35
11 55 25 l36 25 -6 -28 c-4 -15 -11 -35 -15 -44 -16 -30 -10 -38 31 -38 22 0
40 1 40 3 0 1 -9 26 -19 55 -20 53 -18 54 31 19 79 -58 163 69 92 140 -22 22
-31 25 -72 20 -26 -3 -41 -3 -34 0 23 9 44 64 38 98 -10 52 -55 80 -105 66z"/>
</g>
</svg>
