<?xml version="1.0" standalone="no"?>
<!DOCTYPE svg PUBLIC "-//W3C//DTD SVG 20010904//EN"
 "http://www.w3.org/TR/2001/REC-SVG-20010904/DTD/svg10.dtd">
<svg version="1.0" xmlns="http://www.w3.org/2000/svg"
 width="77.000000pt" height="115.000000pt" viewBox="0 0 77.000000 115.000000"
 preserveAspectRatio="xMidYMid meet">

<g transform="translate(0.000000,115.000000) scale(0.100000,-0.100000)"
fill="#000000" stroke="none">
<path d="M0 1140 c0 -5 7 -7 15 -4 19 8 19 14 0 14 -8 0 -15 -4 -15 -10z"/>
<path d="M745 1140 c3 -5 10 -10 16 -10 5 0 9 5 9 10 0 6 -7 10 -16 10 -8 0
-12 -4 -9 -10z"/>
<path d="M48 1075 c4 -24 32 -36 32 -15 0 6 18 10 41 10 35 0 40 -2 34 -17
-46 -106 -55 -163 -26 -163 15 0 20 10 25 51 4 28 18 68 31 90 41 64 37 69
-59 69 l-83 0 5 -25z"/>
<path d="M96 834 c-19 -18 -21 -45 -4 -62 9 -9 7 -12 -8 -12 -26 0 -54 -30
-54 -57 0 -11 9 -28 20 -38 17 -15 24 -16 46 -6 25 11 26 11 20 -14 -5 -21 -3
-25 15 -25 18 0 20 4 15 25 -6 24 7 35 19 15 17 -27 65 6 65 44 0 26 -29 56
-53 56 -14 0 -15 3 -5 19 30 48 -36 95 -76 55z"/>
<path d="M360 461 c-31 -8 -63 -66 -54 -101 3 -14 15 -35 26 -47 l20 -21 -41
5 c-35 5 -44 2 -71 -25 -40 -41 -41 -83 -1 -123 36 -35 57 -36 105 -4 l36 25
-6 -28 c-4 -15 -11 -35 -15 -44 -16 -30 -10 -38 31 -38 39 0 39 0 29 28 -25
61 -28 81 -13 75 8 -3 14 -9 14 -13 0 -4 14 -13 30 -20 83 -35 150 81 84 147
-22 22 -31 25 -72 20 -26 -3 -41 -3 -34 0 23 9 44 64 38 98 -10 52 -55 80
-106 66z"/>
</g>
</svg>
