<?xml version="1.0" standalone="no"?>
<!DOCTYPE svg PUBLIC "-//W3C//DTD SVG 20010904//EN"
 "http://www.w3.org/TR/2001/REC-SVG-20010904/DTD/svg10.dtd">
<svg version="1.0" xmlns="http://www.w3.org/2000/svg"
 width="77.000000pt" height="115.000000pt" viewBox="0 0 77.000000 115.000000"
 preserveAspectRatio="xMidYMid meet">

<g transform="translate(0.000000,115.000000) scale(0.100000,-0.100000)"
fill="#000000" stroke="none">
<path d="M0 1140 c0 -5 7 -7 15 -4 19 8 19 14 0 14 -8 0 -15 -4 -15 -10z"/>
<path d="M740 1146 c0 -2 7 -9 15 -16 12 -10 15 -10 15 4 0 9 -7 16 -15 16 -8
0 -15 -2 -15 -4z"/>
<path d="M72 1084 c-24 -17 -29 -53 -10 -72 9 -9 9 -15 0 -24 -18 -18 -14 -63
6 -81 11 -10 36 -17 60 -17 54 0 87 29 77 68 -8 35 -8 52 0 79 16 50 -79 85
-133 47z m98 -39 c0 -22 -4 -25 -39 -25 -42 0 -57 11 -47 35 3 10 20 15 46 15
36 0 40 -2 40 -25z m0 -91 l0 -35 -42 3 c-32 2 -44 8 -46 21 -7 35 6 47 48 47
39 0 40 -1 40 -36z"/>
<path d="M96 834 c-19 -18 -21 -45 -4 -62 9 -9 7 -12 -9 -12 -49 0 -70 -61
-33 -95 17 -15 24 -16 46 -6 25 11 26 11 20 -14 -5 -21 -3 -25 15 -25 18 0 20
4 15 26 -6 22 -5 24 13 15 27 -15 37 -14 55 5 32 31 7 94 -37 94 -12 0 -14 6
-7 28 4 16 4 36 -2 45 -11 21 -52 22 -72 1z"/>
<path d="M362 463 c-13 -3 -32 -19 -43 -36 -24 -38 -19 -80 14 -115 l22 -24
-23 7 c-42 13 -91 -3 -107 -35 -23 -44 -19 -78 14 -111 36 -35 57 -36 105 -4
20 13 36 23 36 21 0 -2 -7 -23 -15 -46 -21 -59 -20 -60 25 -60 39 0 39 0 29
28 -6 15 -15 39 -19 54 l-8 26 35 -24 c40 -27 52 -29 86 -13 51 23 63 104 21
146 -22 22 -31 25 -72 20 -26 -3 -41 -3 -34 0 23 9 44 64 38 98 -10 50 -51 78
-104 68z"/>
</g>
</svg>
