<?xml version="1.0" standalone="no"?>
<!DOCTYPE svg PUBLIC "-//W3C//DTD SVG 20010904//EN"
 "http://www.w3.org/TR/2001/REC-SVG-20010904/DTD/svg10.dtd">
<svg version="1.0" xmlns="http://www.w3.org/2000/svg"
 width="77.000000pt" height="115.000000pt" viewBox="0 0 77.000000 115.000000"
 preserveAspectRatio="xMidYMid meet">

<g transform="translate(0.000000,115.000000) scale(0.100000,-0.100000)"
fill="#000000" stroke="none">
<path d="M0 1140 c0 -5 7 -7 15 -4 19 8 19 14 0 14 -8 0 -15 -4 -15 -10z"/>
<path d="M740 1146 c0 -2 7 -9 15 -16 12 -10 15 -10 15 4 0 9 -7 16 -15 16 -8
0 -15 -2 -15 -4z"/>
<path d="M66 1079 c-56 -44 -17 -119 62 -119 35 0 42 -3 42 -20 0 -17 -7 -20
-45 -20 -25 0 -45 5 -45 10 0 6 -9 10 -20 10 -26 0 -25 -15 2 -34 29 -20 97
-20 126 0 19 13 22 24 22 84 0 64 -2 70 -29 89 -37 27 -81 27 -115 0z m99 -49
c0 -34 -1 -35 -40 -35 -34 0 -40 3 -43 23 -6 42 5 53 45 50 36 -3 38 -5 38
-38z"/>
<path d="M95 833 c-11 -11 -15 -26 -11 -45 4 -20 2 -28 -9 -28 -42 0 -59 -64
-25 -95 17 -15 24 -16 46 -6 25 11 26 11 20 -14 -5 -21 -3 -25 14 -25 17 0 19
4 14 25 -6 25 -5 25 20 14 22 -10 29 -9 46 6 11 10 20 28 20 40 0 24 -29 55
-51 55 -11 0 -14 9 -11 36 6 52 -37 74 -73 37z"/>
<path d="M353 460 c-30 -12 -56 -65 -48 -99 4 -14 16 -36 28 -49 l21 -22 -32
6 c-47 9 -80 -3 -97 -36 -23 -44 -19 -78 14 -111 36 -36 57 -36 105 -4 l37 25
-6 -22 c-4 -13 -13 -38 -21 -56 l-13 -32 45 0 c39 0 44 2 35 17 -5 10 -13 34
-19 54 l-10 37 35 -24 c47 -31 68 -30 104 5 40 40 40 87 0 125 -26 25 -35 28
-71 22 l-41 -6 21 22 c11 12 23 33 27 45 6 25 -11 76 -31 91 -19 15 -60 21
-83 12z"/>
</g>
</svg>
