<?xml version="1.0" standalone="no"?>
<!DOCTYPE svg PUBLIC "-//W3C//DTD SVG 20010904//EN"
 "http://www.w3.org/TR/2001/REC-SVG-20010904/DTD/svg10.dtd">
<svg version="1.0" xmlns="http://www.w3.org/2000/svg"
 width="77.000000pt" height="115.000000pt" viewBox="0 0 77.000000 115.000000"
 preserveAspectRatio="xMidYMid meet">

<g transform="translate(0.000000,115.000000) scale(0.100000,-0.100000)"
fill="#000000" stroke="none">
<path d="M0 1139 c0 -5 5 -7 10 -4 5 3 10 8 10 11 0 2 -4 4 -10 4 -5 0 -10 -5
-10 -11z"/>
<path d="M731 1147 c2 -1 12 -9 22 -16 14 -12 17 -11 17 3 0 10 -8 16 -22 16
-12 0 -19 -1 -17 -3z"/>
<path d="M115 1088 c-2 -7 -14 -47 -26 -88 -12 -41 -28 -80 -35 -86 -22 -18
-17 -24 21 -24 19 0 35 5 35 10 0 6 -4 10 -10 10 -5 0 -10 7 -10 15 0 11 11
15 40 15 41 0 52 -14 28 -38 -9 -9 -4 -12 25 -12 37 0 50 13 22 24 -8 3 -15
13 -15 22 0 37 -44 164 -57 164 -7 0 -16 -6 -18 -12z m35 -77 c0 -11 3 -26 6
-35 5 -13 -1 -16 -25 -16 -30 0 -41 13 -21 25 6 3 10 15 10 26 0 10 7 19 15
19 8 0 15 -9 15 -19z"/>
<path d="M350 1045 c0 -14 -4 -25 -10 -25 -14 0 -13 -37 1 -42 8 -3 8 -10 -2
-26 -12 -19 -12 -24 1 -32 12 -8 12 -12 0 -36 -12 -21 -12 -28 -2 -31 6 -3 12
-12 12 -20 0 -25 32 -92 47 -97 13 -6 19 10 6 16 -5 2 -16 20 -25 41 -14 29
-18 64 -18 152 l0 114 36 -24 c20 -14 45 -25 55 -25 10 0 21 -4 24 -10 3 -5
26 -10 50 -10 24 0 47 5 50 10 3 6 17 10 31 10 14 0 36 11 50 25 14 14 27 25
29 25 8 0 5 -236 -2 -244 -5 -4 -14 -22 -21 -39 -7 -18 -9 -21 -6 -7 4 14 9
73 11 133 4 91 2 107 -10 107 -9 0 -17 -5 -19 -12 -3 -8 -34 -12 -99 -11 -116
0 -129 2 -129 14 0 5 -7 9 -16 9 -14 0 -16 -14 -12 -110 2 -72 8 -114 15 -118
7 -5 14 -19 15 -32 2 -19 -4 -28 -30 -40 -25 -12 -30 -18 -20 -28 6 -6 8 -15
4 -19 -4 -4 -11 -1 -16 7 -7 11 -10 8 -10 -12 0 -32 9 -34 51 -12 17 8 38 13
46 10 14 -6 14 -8 -1 -24 -22 -25 -20 -42 5 -42 12 0 34 -11 51 -25 31 -26 50
-24 78 9 7 9 20 16 30 16 26 0 31 11 15 36 -14 22 -14 24 8 29 12 3 36 -1 52
-9 45 -23 55 -20 54 17 0 29 -1 30 -9 10 -12 -31 -23 -29 -18 2 4 20 1 26 -18
31 -29 7 -29 14 -4 66 11 23 20 50 20 60 0 10 7 18 15 18 21 0 19 27 -2 39
-17 10 -17 12 0 25 20 15 23 28 5 21 -8 -3 -14 4 -14 20 -1 15 3 25 12 25 8 0
14 7 14 16 0 8 -4 13 -9 10 -10 -7 -21 17 -21 45 0 21 -25 26 -37 6 -17 -26
-123 -59 -123 -39 0 6 6 13 13 15 6 3 -2 6 -20 6 -17 1 -35 6 -39 12 -5 8 6
10 35 7 22 -2 41 0 41 4 0 5 -20 8 -45 8 -48 0 -55 -9 -29 -35 12 -11 13 -20
6 -27 -6 -6 -12 -6 -16 1 -4 6 -16 11 -27 11 -20 0 -54 16 -77 38 -21 19 -32
14 -32 -13z m155 -105 c17 -19 17 -21 0 -40 -16 -18 -16 -20 -2 -20 21 0 22
-14 3 -29 -11 -9 -15 -9 -20 1 -3 7 -4 2 -1 -12 4 -23 -27 -70 -47 -70 -13 0
-9 30 5 31 7 0 6 3 -3 6 -24 10 -40 30 -40 52 0 12 5 21 10 21 14 0 12 27 -2
33 -9 3 -10 8 -2 16 8 8 14 4 25 -15 11 -21 11 -28 2 -31 -7 -3 -13 -14 -13
-25 0 -11 5 -18 12 -16 15 5 29 66 17 74 -12 7 9 44 25 44 7 0 21 -9 31 -20z
m95 5 c10 -12 10 -18 1 -29 -7 -9 -8 -17 -2 -20 5 -3 8 -14 7 -23 -2 -10 3
-24 11 -31 15 -15 17 -32 4 -32 -4 0 -6 -11 -3 -25 2 -15 0 -25 -7 -25 -6 0
-11 4 -11 8 0 5 -9 19 -19 31 -10 12 -17 30 -14 40 3 14 0 19 -13 18 -9 -1
-19 4 -21 11 -3 6 3 12 13 12 16 0 16 1 1 18 -15 16 -15 20 -1 40 18 26 37 28
54 7z m50 -25 c0 -5 -4 -10 -10 -10 -5 0 -10 -7 -10 -15 0 -8 5 -15 10 -15 6
0 10 -11 10 -25 0 -14 -4 -25 -10 -25 -5 0 -10 10 -10 23 0 13 -5 28 -11 34
-8 8 -8 15 2 27 16 18 29 20 29 6z m-170 -144 c0 -3 -4 -8 -10 -11 -5 -3 -10
-1 -10 4 0 6 5 11 10 11 6 0 10 -2 10 -4z m110 -6 c0 -5 -4 -10 -10 -10 -5 0
-10 5 -10 10 0 6 5 10 10 10 6 0 10 -4 10 -10z m-10 -41 c3 -3 27 -12 55 -21
64 -20 70 -38 13 -38 -25 0 -47 3 -51 6 -7 7 -111 6 -174 -3 -62 -8 -56 17 10
42 48 19 136 27 147 14z m-100 -74 c11 -13 10 -14 -4 -9 -9 3 -16 10 -16 15 0
13 6 11 20 -6z m56 -23 c-3 -5 11 -9 31 -10 60 -2 61 -22 1 -24 -22 -1 -35 -6
-34 -14 0 -7 -3 -13 -9 -13 -5 0 -9 6 -9 13 1 8 -12 13 -34 14 -60 2 -59 22 1
24 20 1 34 5 32 9 -3 4 -2 15 1 24 6 16 8 16 16 1 5 -9 7 -20 4 -24z m49 19
c-3 -6 -11 -11 -16 -11 -5 0 -4 6 3 14 14 16 24 13 13 -3z"/>
<path d="M90 835 c-7 -8 -10 -28 -8 -43 3 -24 0 -31 -24 -40 -23 -9 -28 -16
-28 -46 0 -43 27 -63 61 -46 26 15 34 7 19 -19 -10 -19 -8 -21 15 -21 22 0 25
3 19 26 -6 24 -5 25 15 15 26 -14 57 0 66 29 8 26 -19 70 -43 70 -15 0 -18 6
-14 30 5 36 -12 60 -43 60 -12 0 -28 -7 -35 -15z"/>
<path d="M354 460 c-52 -21 -69 -90 -35 -139 l19 -26 -38 3 c-83 8 -122 -88
-61 -149 36 -36 60 -37 99 -4 17 14 33 25 36 25 3 0 -3 -24 -14 -52 -11 -29
-20 -54 -20 -55 0 -2 18 -3 40 -3 41 0 47 8 31 38 -4 9 -11 31 -15 47 l-8 30
24 -22 c61 -58 143 -25 143 57 0 34 -6 47 -30 67 -23 20 -36 24 -67 20 l-38
-5 25 30 c14 16 25 38 25 49 0 36 -29 77 -61 88 -18 6 -32 11 -33 10 -1 0 -11
-4 -22 -9z"/>
</g>
</svg>
