<?xml version="1.0" standalone="no"?>
<!DOCTYPE svg PUBLIC "-//W3C//DTD SVG 20010904//EN"
 "http://www.w3.org/TR/2001/REC-SVG-20010904/DTD/svg10.dtd">
<svg version="1.0" xmlns="http://www.w3.org/2000/svg"
 width="77.000000pt" height="115.000000pt" viewBox="0 0 77.000000 115.000000"
 preserveAspectRatio="xMidYMid meet">

<g transform="translate(0.000000,115.000000) scale(0.100000,-0.100000)"
fill="#000000" stroke="none">
<path d="M0 1140 c0 -5 7 -7 15 -4 19 8 19 14 0 14 -8 0 -15 -4 -15 -10z"/>
<path d="M731 1147 c2 -1 12 -9 22 -16 14 -12 17 -11 17 3 0 10 -8 16 -22 16
-12 0 -19 -1 -17 -3z"/>
<path d="M130 1090 c0 -5 7 -10 15 -10 13 0 15 -13 13 -77 l-3 -78 -37 -3
c-35 -3 -38 -1 -38 22 0 20 -5 26 -21 26 -17 0 -20 -4 -15 -22 3 -13 6 -26 6
-29 0 -10 50 -29 75 -29 47 0 65 32 65 115 0 43 4 75 10 75 6 0 10 5 10 10 0
6 -18 10 -40 10 -22 0 -40 -4 -40 -10z"/>
<path d="M310 1047 c0 -7 18 -31 40 -52 47 -45 51 -77 15 -101 -30 -20 -31
-28 -6 -53 19 -19 19 -63 -1 -88 -5 -7 -7 -17 -3 -23 4 -6 -3 -23 -16 -36
l-23 -25 69 -69 c96 -97 102 -97 233 28 109 104 122 131 82 167 -16 15 -22 15
-35 5 -13 -11 -15 -2 -15 77 0 89 0 89 35 123 61 59 58 60 -170 60 -161 0
-205 -3 -205 -13z m125 -48 c12 -19 -5 -23 -22 -6 -16 16 -16 17 -1 17 9 0 20
-5 23 -11z m99 -4 c-4 -8 -10 -15 -14 -15 -4 0 -13 7 -20 15 -11 13 -8 15 13
15 19 0 25 -4 21 -15z m90 0 c-6 -16 -34 -21 -34 -7 0 13 11 22 26 22 8 0 11
-6 8 -15z m-109 -81 c4 -26 3 -50 -2 -53 -4 -3 -16 -23 -27 -43 -11 -23 -23
-35 -32 -31 -8 3 -14 1 -14 -5 0 -6 -13 -4 -31 5 -17 9 -27 18 -23 22 5 3 9
13 9 21 0 8 8 16 19 18 10 2 16 0 12 -6 -3 -6 -3 -18 0 -27 6 -15 8 -16 16 -1
5 9 4 23 -4 35 -9 15 -19 18 -45 14 -40 -7 -41 -2 -7 32 17 17 23 32 19 45 -6
18 -2 20 48 20 l55 0 7 -46z m-95 -138 c0 -2 -7 -6 -15 -10 -8 -3 -15 -1 -15
4 0 6 7 10 15 10 8 0 15 -2 15 -4z m100 -61 c-27 -28 -30 -35 -17 -40 8 -4 18
-13 21 -21 3 -9 1 -12 -5 -9 -5 4 -17 1 -25 -6 -11 -9 -18 -9 -26 -1 -15 15
-32 16 -23 2 10 -17 -2 -11 -16 8 -7 9 -10 14 -5 10 4 -4 18 2 29 13 21 19 21
19 1 34 -10 8 -14 15 -8 15 5 0 15 -5 22 -12 10 -10 18 -7 38 15 13 15 30 27
36 27 7 0 -3 -16 -22 -35z m90 1 c0 -2 -7 -7 -16 -10 -8 -3 -12 -2 -9 4 6 10
25 14 25 6z m-239 -29 c-10 -9 -11 -8 -5 6 3 10 9 15 12 12 3 -3 0 -11 -7 -18z
m281 1 c-7 -7 -12 -8 -12 -2 0 14 12 26 19 19 2 -3 -1 -11 -7 -17z m-82 -2 c0
-2 -8 -10 -17 -17 -16 -13 -17 -12 -4 4 13 16 21 21 21 13z m-136 -90 c23 -21
32 -34 21 -27 -11 6 -42 34 -70 63 -51 53 -24 33 49 -36z m176 61 c0 -2 -15
-16 -32 -33 l-33 -29 29 33 c28 30 36 37 36 29z"/>
<path d="M436 915 c7 -18 24 -20 24 -2 0 8 3 7 10 -3 5 -8 12 -11 15 -8 12 12
-6 28 -30 28 -18 0 -23 -4 -19 -15z"/>
<path d="M470 660 c0 -5 5 -10 10 -10 6 0 10 5 10 10 0 6 -4 10 -10 10 -5 0
-10 -4 -10 -10z"/>
<path d="M95 837 c-14 -11 -17 -22 -12 -45 5 -26 3 -31 -18 -36 -27 -7 -40
-36 -31 -71 7 -28 41 -42 62 -24 20 16 31 2 16 -21 -11 -18 -9 -20 13 -20 22
0 25 3 19 25 -6 25 -5 25 21 13 25 -11 29 -10 46 11 11 13 19 28 19 35 0 21
-31 56 -49 56 -14 0 -17 6 -13 30 7 52 -32 77 -73 47z"/>
<path d="M353 460 c-24 -10 -53 -58 -53 -89 0 -11 12 -33 26 -50 l26 -31 -31
6 c-46 9 -79 -3 -96 -36 -23 -44 -19 -78 14 -111 36 -36 57 -36 105 -4 l37 25
-6 -22 c-4 -13 -13 -38 -21 -56 l-13 -32 45 0 c39 0 44 2 35 17 -5 10 -13 34
-19 54 l-10 37 35 -24 c47 -32 68 -30 105 6 26 27 30 36 25 67 -4 20 -17 47
-29 60 -20 21 -29 24 -66 19 l-44 -6 26 31 c14 17 26 39 26 50 0 36 -29 77
-61 88 -18 6 -32 11 -33 10 -1 0 -11 -4 -23 -9z"/>
</g>
</svg>
