<?xml version="1.0" standalone="no"?>
<!DOCTYPE svg PUBLIC "-//W3C//DTD SVG 20010904//EN"
 "http://www.w3.org/TR/2001/REC-SVG-20010904/DTD/svg10.dtd">
<svg version="1.0" xmlns="http://www.w3.org/2000/svg"
 width="77.000000pt" height="115.000000pt" viewBox="0 0 77.000000 115.000000"
 preserveAspectRatio="xMidYMid meet">

<g transform="translate(0.000000,115.000000) scale(0.100000,-0.100000)"
fill="#000000" stroke="none">
<path d="M0 1139 c0 -5 5 -7 10 -4 5 3 10 8 10 11 0 2 -4 4 -10 4 -5 0 -10 -5
-10 -11z"/>
<path d="M731 1147 c2 -1 12 -9 22 -16 14 -12 17 -11 17 3 0 10 -8 16 -22 16
-12 0 -19 -1 -17 -3z"/>
<path d="M65 1085 c-34 -33 -36 -128 -4 -169 22 -28 75 -36 97 -14 9 9 15 9
24 0 7 -7 19 -12 27 -12 14 1 14 2 1 13 -11 9 -14 29 -12 84 3 66 2 74 -22 98
-33 33 -79 33 -111 0z m95 -75 l0 -59 -30 6 c-35 7 -40 -4 -7 -16 19 -8 20
-10 5 -16 -38 -15 -48 1 -48 75 l0 70 40 0 40 0 0 -60z"/>
<path d="M494 1065 c-17 -21 -21 -21 -36 -8 -27 24 -35 9 -40 -71 -3 -42 -10
-81 -15 -88 -6 -7 -16 -38 -23 -68 -7 -30 -16 -59 -20 -65 -10 -14 -30 -99
-30 -127 0 -14 14 -38 34 -57 l33 -32 113 0 113 0 43 42 44 43 0 96 c0 88 -2
100 -35 165 -26 53 -35 83 -35 123 0 54 -14 68 -40 37 -10 -12 -15 -11 -33 8
-29 29 -49 29 -73 2z m-19 -45 c8 0 19 8 24 18 6 9 11 12 11 6 0 -19 40 -25
40 -6 1 16 1 16 10 0 12 -19 38 -18 51 3 7 11 9 9 9 -8 0 -22 -3 -23 -90 -23
-87 0 -90 1 -90 23 1 20 2 20 11 5 5 -10 16 -18 24 -18z m103 -72 c7 -7 12
-16 12 -22 0 -5 -3 -6 -7 -3 -7 8 -33 -11 -33 -24 0 -14 28 -11 33 4 8 18 27
-12 27 -44 0 -31 -47 -79 -77 -79 -26 0 -63 44 -63 75 0 15 12 30 33 44 17 11
29 21 25 22 -5 1 -12 3 -18 4 -5 1 -13 3 -16 4 -4 0 -1 8 6 16 15 18 61 20 78
3z m12 -178 c0 -11 -7 -20 -15 -20 -13 0 -13 3 -3 20 7 11 14 20 15 20 2 0 3
-9 3 -20z m-90 -5 c10 -12 10 -15 -4 -15 -9 0 -16 7 -16 15 0 8 2 15 4 15 2 0
9 -7 16 -15z m50 -34 c0 -6 15 -7 34 -4 21 3 36 1 41 -7 6 -9 0 -11 -24 -8
-19 3 -36 -1 -42 -9 -15 -17 -38 -17 -45 1 -4 11 -16 13 -41 9 -27 -5 -34 -3
-29 6 5 7 23 11 41 9 19 -1 37 1 41 5 10 10 24 9 24 -2z m-6 -86 c-7 -16 -24
-21 -24 -6 0 8 7 13 27 20 1 1 0 -6 -3 -14z m-44 -31 c-15 -17 -17 -17 -23 -1
-3 8 3 14 15 14 16 2 17 -1 8 -13z m75 5 c11 -17 -1 -21 -15 -4 -8 9 -8 15 -2
15 6 0 14 -5 17 -11z m-32 -12 c7 -17 -9 -44 -20 -34 -4 5 -1 13 7 18 12 9 12
10 -2 5 -18 -5 -24 5 -11 17 10 11 20 8 26 -6z m90 -16 c-4 -3 -10 -9 -13 -12
-3 -4 -10 -1 -17 6 -9 10 -6 13 13 13 14 0 21 -3 17 -7z m-212 -24 c-10 -9
-11 -8 -5 6 3 10 9 15 12 12 3 -3 0 -11 -7 -18z m89 3 c0 -4 -11 -7 -25 -7
-20 0 -23 2 -14 13 10 13 39 9 39 -6z m79 6 c9 -11 6 -13 -14 -13 -26 0 -34
12 -12 20 6 3 13 6 13 6 1 1 7 -5 13 -13z"/>
<path d="M525 860 c3 -5 11 -10 16 -10 6 0 7 5 4 10 -3 6 -11 10 -16 10 -6 0
-7 -4 -4 -10z"/>
<path d="M500 830 c0 -5 5 -10 10 -10 6 0 10 5 10 10 0 6 -4 10 -10 10 -5 0
-10 -4 -10 -10z"/>
<path d="M550 830 c0 -5 5 -10 10 -10 6 0 10 5 10 10 0 6 -4 10 -10 10 -5 0
-10 -4 -10 -10z"/>
<path d="M530 800 c0 -5 5 -10 10 -10 6 0 10 5 10 10 0 6 -4 10 -10 10 -5 0
-10 -4 -10 -10z"/>
<path d="M90 835 c-7 -9 -10 -27 -7 -44 5 -25 2 -30 -18 -35 -27 -7 -40 -36
-31 -71 7 -28 41 -42 62 -24 20 16 28 5 14 -20 -10 -19 -8 -21 15 -21 22 0 25
3 19 25 -6 25 -5 25 21 13 25 -11 29 -10 46 11 11 13 19 28 19 35 0 21 -31 56
-49 56 -14 0 -17 6 -13 30 2 17 -1 37 -8 45 -16 19 -54 19 -70 0z"/>
<path d="M352 460 c-29 -12 -57 -70 -48 -104 3 -14 15 -34 27 -45 20 -19 20
-19 -25 -14 -38 5 -48 2 -70 -20 -37 -37 -36 -89 3 -128 16 -16 36 -29 45 -29
20 0 66 21 66 31 0 4 6 9 14 12 12 5 12 -1 4 -31 -6 -20 -14 -45 -19 -54 -9
-16 -4 -18 35 -18 l45 0 -13 33 c-8 17 -17 42 -21 55 l-6 22 37 -25 c46 -31
65 -31 101 -1 40 35 39 98 -1 133 -25 21 -36 24 -69 19 l-39 -7 26 31 c14 18
26 40 26 51 0 36 -29 77 -61 88 -18 6 -32 11 -33 10 -1 0 -11 -4 -24 -9z"/>
</g>
</svg>
