<?xml version="1.0" standalone="no"?>
<!DOCTYPE svg PUBLIC "-//W3C//DTD SVG 20010904//EN"
 "http://www.w3.org/TR/2001/REC-SVG-20010904/DTD/svg10.dtd">
<svg version="1.0" xmlns="http://www.w3.org/2000/svg"
 width="77.000000pt" height="115.000000pt" viewBox="0 0 77.000000 115.000000"
 preserveAspectRatio="xMidYMid meet">

<g transform="translate(0.000000,115.000000) scale(0.100000,-0.100000)"
fill="#000000" stroke="none">
<path d="M0 1139 c0 -5 5 -7 10 -4 5 3 10 8 10 11 0 2 -4 4 -10 4 -5 0 -10 -5
-10 -11z"/>
<path d="M731 1147 c2 -1 12 -9 22 -16 14 -12 17 -11 17 3 0 10 -8 16 -22 16
-12 0 -19 -1 -17 -3z"/>
<path d="M40 1091 c0 -6 5 -13 10 -16 13 -8 13 -152 0 -160 -19 -12 -10 -25
19 -25 28 0 28 1 23 45 -2 25 -1 45 2 45 13 0 61 -64 58 -77 -2 -9 9 -13 33
-13 19 0 35 2 35 4 0 2 -22 26 -50 53 -27 28 -50 55 -50 60 0 6 18 27 40 47
22 20 40 38 40 41 0 3 -16 5 -36 5 -27 0 -35 -4 -31 -14 3 -8 -6 -24 -20 -37
l-26 -24 6 38 c6 36 5 37 -24 37 -16 0 -29 -4 -29 -9z"/>
<path d="M365 922 l7 -138 -26 -17 c-21 -14 -26 -25 -26 -61 0 -39 6 -51 58
-109 63 -72 78 -82 97 -67 9 7 16 6 25 -5 7 -8 25 -15 40 -15 15 0 33 7 40 15
9 11 16 12 26 4 10 -8 25 0 64 37 27 25 50 54 50 63 0 10 -16 33 -36 52 l-35
34 5 105 c3 58 8 135 11 173 6 62 5 67 -13 67 -11 0 -23 -6 -26 -12 -5 -10 -7
-10 -12 0 -8 17 -24 15 -40 -5 -13 -17 -13 -17 -14 0 0 10 -8 17 -20 17 -12 0
-20 -7 -20 -17 -1 -17 -1 -17 -14 0 -7 9 -17 17 -21 17 -4 0 -14 -8 -21 -17
-13 -17 -13 -17 -14 0 0 10 -8 17 -20 17 -12 0 -20 -7 -20 -17 -1 -17 -1 -17
-14 0 -7 9 -19 17 -26 17 -9 0 -10 -31 -5 -138z m40 88 c8 0 19 8 24 18 10 16
10 16 11 0 0 -22 29 -24 37 -2 5 15 7 15 15 0 11 -20 38 -21 38 -1 0 8 5 15
11 15 5 0 7 -5 4 -10 -11 -18 27 -24 40 -6 11 14 13 15 19 1 7 -18 33 -20 39
-2 2 7 3 6 3 -3 -1 -13 -23 -15 -136 -15 -127 0 -135 1 -138 20 -2 18 -2 18 8
3 6 -10 17 -18 25 -18z m216 -85 c28 -9 23 -25 -7 -25 -22 0 -26 -4 -21 -22 2
-13 8 -31 12 -40 5 -13 3 -18 -8 -18 -21 0 -28 13 -29 51 -1 26 -4 30 -26 27
-14 -2 -28 -9 -30 -17 -3 -8 0 -11 5 -8 6 4 18 -2 28 -13 17 -19 17 -20 -9
-29 -14 -6 -26 -15 -26 -21 0 -5 -4 -10 -10 -10 -16 0 -12 91 5 110 15 17 82
25 116 15z m11 -77 c-7 -7 -12 -8 -12 -2 0 14 12 26 19 19 2 -3 -1 -11 -7 -17z
m-29 -62 c6 -15 -19 -30 -34 -20 -5 3 -9 0 -9 -5 0 -6 14 -11 31 -11 17 0 28
-4 24 -10 -3 -5 -19 -10 -36 -10 -16 0 -29 5 -29 10 0 6 -7 10 -15 10 -28 0
-15 26 18 37 45 15 44 15 50 -1z m-115 -144 c20 -30 11 -28 -19 4 -13 15 -18
25 -10 22 8 -2 21 -14 29 -26z m192 25 c0 -2 -12 -14 -27 -28 l-28 -24 24 28
c23 25 31 32 31 24z m-80 -31 c0 -2 -8 -10 -17 -17 -16 -13 -17 -12 -4 4 13
16 21 21 21 13z m-40 -43 c25 -22 25 -28 -1 -54 l-21 -21 -19 21 c-23 25 -23
30 -2 53 20 22 18 22 43 1z m60 13 c0 -2 -8 -10 -17 -17 -16 -13 -17 -12 -4 4
13 16 21 21 21 13z m-132 -31 c-3 -3 -9 2 -12 12 -6 14 -5 15 5 6 7 -7 10 -15
7 -18z"/>
<path d="M90 835 c-7 -9 -10 -27 -6 -45 4 -22 2 -30 -9 -30 -23 0 -45 -30 -45
-61 0 -37 39 -60 65 -39 21 17 29 7 15 -19 -10 -19 -8 -21 15 -21 22 0 25 3
19 25 -6 25 -5 25 21 13 25 -11 29 -10 46 11 11 13 19 28 19 35 0 21 -31 56
-49 56 -14 0 -17 6 -13 30 2 17 -1 37 -8 45 -16 19 -54 19 -70 0z"/>
<path d="M354 460 c-52 -21 -68 -82 -36 -135 l19 -30 -38 3 c-82 8 -120 -88
-60 -149 36 -36 60 -37 99 -4 17 14 32 25 35 25 7 0 -16 -77 -26 -86 -16 -16
-5 -24 33 -24 45 0 46 1 25 60 -8 23 -15 44 -15 46 0 2 16 -8 36 -21 46 -31
66 -31 101 -1 22 19 28 32 28 66 0 34 -6 47 -30 67 -23 20 -36 24 -67 20 l-38
-5 25 30 c14 16 25 38 25 49 0 36 -29 77 -61 88 -18 6 -32 11 -33 10 -1 0 -11
-4 -22 -9z"/>
</g>
</svg>
