<?xml version="1.0" standalone="no"?>
<!DOCTYPE svg PUBLIC "-//W3C//DTD SVG 20010904//EN"
 "http://www.w3.org/TR/2001/REC-SVG-20010904/DTD/svg10.dtd">
<svg version="1.0" xmlns="http://www.w3.org/2000/svg"
 width="77.000000pt" height="115.000000pt" viewBox="0 0 77.000000 115.000000"
 preserveAspectRatio="xMidYMid meet">

<g transform="translate(0.000000,115.000000) scale(0.100000,-0.100000)"
fill="#000000" stroke="none">
<path d="M755 1140 c3 -5 8 -10 11 -10 2 0 4 5 4 10 0 6 -5 10 -11 10 -5 0 -7
-4 -4 -10z"/>
<path d="M40 1000 c0 -103 1 -110 20 -110 19 0 20 7 20 110 0 103 -1 110 -20
110 -19 0 -20 -7 -20 -110z"/>
<path d="M122 1094 c-20 -13 -22 -24 -22 -94 0 -88 12 -110 59 -110 50 0 65
21 69 96 3 59 1 73 -18 97 -24 30 -55 35 -88 11z m63 -94 c0 -70 -1 -75 -22
-78 -22 -3 -23 -1 -23 78 0 79 1 81 23 78 21 -3 22 -8 22 -78z"/>
<path d="M81 795 c-57 -75 -68 -108 -47 -140 18 -27 53 -33 75 -12 14 12 14 8
-5 -38 -5 -11 1 -15 21 -15 20 0 26 4 21 15 -19 46 -19 50 -5 38 31 -30 89 1
89 48 0 16 -33 68 -81 128 l-26 32 -42 -56z"/>
<path d="M316 384 c-101 -127 -115 -177 -64 -232 25 -26 64 -29 96 -6 22 15
23 15 16 -13 -4 -15 -11 -36 -16 -46 -8 -15 -4 -17 32 -17 22 0 40 2 40 4 0 2
-7 20 -15 39 -21 50 -19 61 7 37 37 -34 90 -25 113 21 31 59 20 86 -96 237
l-46 60 -67 -84z"/>
<path d="M750 10 c-13 -8 -12 -10 3 -10 9 0 17 5 17 10 0 12 -1 12 -20 0z"/>
</g>
</svg>
