<?xml version="1.0" standalone="no"?>
<!DOCTYPE svg PUBLIC "-//W3C//DTD SVG 20010904//EN"
 "http://www.w3.org/TR/2001/REC-SVG-20010904/DTD/svg10.dtd">
<svg version="1.0" xmlns="http://www.w3.org/2000/svg"
 width="77.000000pt" height="115.000000pt" viewBox="0 0 77.000000 115.000000"
 preserveAspectRatio="xMidYMid meet">

<g transform="translate(0.000000,115.000000) scale(0.100000,-0.100000)"
fill="#000000" stroke="none">
<path d="M755 1140 c3 -5 8 -10 11 -10 2 0 4 5 4 10 0 6 -5 10 -11 10 -5 0 -7
-4 -4 -10z"/>
<path d="M72 1094 c-24 -17 -30 -54 -8 -54 7 0 16 9 19 21 5 17 12 20 49 17
35 -2 43 -7 43 -23 0 -11 -15 -28 -35 -42 -74 -46 -90 -64 -90 -94 l0 -29 86
0 85 0 -3 28 c-3 29 -26 37 -43 14 -12 -15 -87 -13 -92 3 -1 6 25 28 59 50 82
54 91 69 55 101 -33 28 -91 32 -125 8z"/>
<path d="M76 784 c-51 -67 -62 -108 -36 -138 15 -19 51 -21 68 -4 16 16 17 -5
2 -33 -9 -16 -7 -19 14 -19 23 0 25 3 19 33 -5 26 -3 30 8 20 31 -30 79 -2 79
46 0 18 -18 52 -50 95 -28 36 -52 66 -53 66 -1 0 -24 -30 -51 -66z"/>
<path d="M317 381 c-88 -116 -102 -149 -83 -195 22 -53 87 -76 116 -41 23 27
29 16 15 -26 -8 -23 -15 -43 -15 -45 0 -2 16 -4 35 -4 40 0 41 3 19 55 -18 44
-14 53 11 25 45 -50 125 -6 125 69 0 45 -39 109 -150 243 -3 4 -36 -32 -73
-81z"/>
<path d="M0 10 c0 -5 5 -10 11 -10 5 0 7 5 4 10 -3 6 -8 10 -11 10 -2 0 -4 -4
-4 -10z"/>
<path d="M755 10 c-3 -5 -1 -10 4 -10 6 0 11 5 11 10 0 6 -2 10 -4 10 -3 0 -8
-4 -11 -10z"/>
</g>
</svg>
