<?xml version="1.0" standalone="no"?>
<!DOCTYPE svg PUBLIC "-//W3C//DTD SVG 20010904//EN"
 "http://www.w3.org/TR/2001/REC-SVG-20010904/DTD/svg10.dtd">
<svg version="1.0" xmlns="http://www.w3.org/2000/svg"
 width="77.000000pt" height="115.000000pt" viewBox="0 0 77.000000 115.000000"
 preserveAspectRatio="xMidYMid meet">

<g transform="translate(0.000000,115.000000) scale(0.100000,-0.100000)"
fill="#000000" stroke="none">
<path d="M755 1140 c3 -5 8 -10 11 -10 2 0 4 5 4 10 0 6 -5 10 -11 10 -5 0 -7
-4 -4 -10z"/>
<path d="M40 1080 c0 -23 4 -30 20 -30 11 0 20 5 20 10 0 6 21 10 47 10 l46 0
-21 -23 c-29 -31 -28 -47 3 -47 22 0 25 -4 25 -35 0 -35 0 -35 -45 -35 -31 0
-47 5 -51 15 -6 16 -44 21 -44 7 0 -5 10 -18 23 -30 28 -26 92 -30 125 -6 30
21 31 87 2 107 l-20 14 20 18 c11 10 20 26 20 37 0 16 -9 18 -85 18 l-85 0 0
-30z"/>
<path d="M79 787 c-26 -34 -50 -72 -54 -85 -14 -49 49 -94 83 -60 16 16 17 -5
2 -33 -9 -16 -7 -19 14 -19 23 0 25 3 19 33 -5 26 -3 30 8 20 31 -30 79 -2 79
46 0 18 -18 52 -50 95 -28 36 -52 66 -53 66 -1 0 -23 -29 -48 -63z"/>
<path d="M318 382 c-88 -115 -103 -150 -84 -196 22 -53 87 -76 116 -41 22 27
31 16 15 -21 -21 -51 -20 -54 20 -54 19 0 35 2 35 4 0 2 -7 23 -15 46 -18 50
-15 58 10 30 45 -50 125 -6 125 69 0 45 -40 111 -150 243 -3 4 -36 -32 -72
-80z"/>
<path d="M0 10 c0 -5 5 -10 11 -10 5 0 7 5 4 10 -3 6 -8 10 -11 10 -2 0 -4 -4
-4 -10z"/>
<path d="M755 10 c-3 -5 -1 -10 4 -10 6 0 11 5 11 10 0 6 -2 10 -4 10 -3 0 -8
-4 -11 -10z"/>
</g>
</svg>
