<?xml version="1.0" standalone="no"?>
<!DOCTYPE svg PUBLIC "-//W3C//DTD SVG 20010904//EN"
 "http://www.w3.org/TR/2001/REC-SVG-20010904/DTD/svg10.dtd">
<svg version="1.0" xmlns="http://www.w3.org/2000/svg"
 width="77.000000pt" height="115.000000pt" viewBox="0 0 77.000000 115.000000"
 preserveAspectRatio="xMidYMid meet">

<g transform="translate(0.000000,115.000000) scale(0.100000,-0.100000)"
fill="#000000" stroke="none">
<path d="M755 1140 c3 -5 8 -10 11 -10 2 0 4 5 4 10 0 6 -5 10 -11 10 -5 0 -7
-4 -4 -10z"/>
<path d="M102 1047 c-80 -80 -81 -97 -7 -97 48 0 55 -2 55 -20 0 -11 -7 -20
-15 -20 -8 0 -15 -4 -15 -10 0 -5 20 -10 45 -10 25 0 45 5 45 10 0 6 -4 10
-10 10 -5 0 -10 9 -10 20 0 11 7 20 15 20 8 0 15 7 15 15 0 9 -7 18 -15 21
-11 5 -15 22 -15 65 0 41 -4 59 -13 59 -7 0 -41 -28 -75 -63z m48 -32 c0 -21
-5 -25 -32 -25 l-31 0 23 25 c13 14 27 25 32 25 4 0 8 -11 8 -25z"/>
<path d="M79 787 c-26 -34 -50 -72 -54 -85 -14 -49 49 -94 83 -60 16 16 17 -5
2 -33 -9 -16 -7 -19 15 -19 28 0 28 0 15 34 -9 25 2 37 15 16 10 -16 40 -12
58 8 29 32 20 65 -34 136 -28 36 -52 66 -53 66 0 0 -22 -29 -47 -63z"/>
<path d="M318 383 c-88 -116 -103 -151 -84 -197 22 -53 87 -76 116 -41 22 27
31 16 15 -21 -21 -51 -20 -54 20 -54 19 0 35 2 35 4 0 2 -7 23 -15 46 -18 50
-15 58 10 30 25 -28 70 -26 100 5 49 48 28 118 -66 231 -19 22 -41 50 -49 62
-15 22 -16 21 -82 -65z"/>
<path d="M755 10 c-3 -5 -1 -10 4 -10 6 0 11 5 11 10 0 6 -2 10 -4 10 -3 0 -8
-4 -11 -10z"/>
</g>
</svg>
