<?xml version="1.0" standalone="no"?>
<!DOCTYPE svg PUBLIC "-//W3C//DTD SVG 20010904//EN"
 "http://www.w3.org/TR/2001/REC-SVG-20010904/DTD/svg10.dtd">
<svg version="1.0" xmlns="http://www.w3.org/2000/svg"
 width="77.000000pt" height="115.000000pt" viewBox="0 0 77.000000 115.000000"
 preserveAspectRatio="xMidYMid meet">

<g transform="translate(0.000000,115.000000) scale(0.100000,-0.100000)"
fill="#000000" stroke="none">
<path d="M755 1140 c3 -5 8 -10 11 -10 2 0 4 5 4 10 0 6 -5 10 -11 10 -5 0 -7
-4 -4 -10z"/>
<path d="M50 1061 l0 -49 63 1 62 2 3 -42 3 -43 -45 0 c-34 0 -46 4 -46 15 0
8 -9 15 -20 15 -27 0 -25 -25 2 -44 31 -22 91 -20 119 3 18 15 23 27 21 57 -4
56 -27 76 -79 72 -36 -3 -43 0 -43 14 0 15 9 18 60 18 47 0 60 3 60 15 0 12
-16 15 -80 15 l-80 0 0 -49z"/>
<path d="M78 788 c-25 -35 -49 -73 -53 -86 -15 -48 49 -94 83 -60 16 16 17 -5
2 -33 -9 -16 -7 -19 15 -19 28 0 28 0 16 33 -9 24 -9 24 19 14 24 -9 32 -8 49
8 34 30 26 66 -30 139 -28 36 -52 66 -53 66 -1 0 -23 -28 -48 -62z"/>
<path d="M319 383 c-108 -143 -117 -176 -64 -229 27 -27 76 -32 95 -9 22 27
31 16 15 -21 -21 -51 -20 -54 20 -54 19 0 35 2 35 4 0 2 -7 23 -15 46 -18 50
-15 58 10 30 43 -47 125 -5 125 65 0 45 -15 73 -77 151 -27 34 -55 71 -63 83
-15 21 -17 20 -81 -66z"/>
<path d="M755 10 c-3 -5 -1 -10 4 -10 6 0 11 5 11 10 0 6 -2 10 -4 10 -3 0 -8
-4 -11 -10z"/>
</g>
</svg>
