<?xml version="1.0" standalone="no"?>
<!DOCTYPE svg PUBLIC "-//W3C//DTD SVG 20010904//EN"
 "http://www.w3.org/TR/2001/REC-SVG-20010904/DTD/svg10.dtd">
<svg version="1.0" xmlns="http://www.w3.org/2000/svg"
 width="77.000000pt" height="115.000000pt" viewBox="0 0 77.000000 115.000000"
 preserveAspectRatio="xMidYMid meet">

<g transform="translate(0.000000,115.000000) scale(0.100000,-0.100000)"
fill="#000000" stroke="none">
<path d="M755 1140 c3 -5 8 -10 11 -10 2 0 4 5 4 10 0 6 -5 10 -11 10 -5 0 -7
-4 -4 -10z"/>
<path d="M75 1098 c-31 -17 -35 -28 -35 -95 0 -55 3 -64 26 -82 56 -44 144
-15 144 48 0 40 -28 61 -83 61 -43 0 -47 2 -47 25 0 23 4 25 45 25 25 0 45 -4
45 -10 0 -5 9 -10 20 -10 26 0 25 15 -2 34 -26 19 -84 20 -113 4z m100 -109
c4 -5 4 -21 1 -35 -6 -21 -12 -24 -51 -24 -45 0 -45 0 -45 35 0 35 0 35 44 35
25 0 48 -5 51 -11z"/>
<path d="M81 793 c-57 -74 -68 -106 -47 -138 18 -27 54 -33 74 -13 16 16 17
-5 2 -33 -9 -17 -7 -19 16 -19 19 0 25 4 20 15 -3 8 -9 22 -12 29 -5 13 -1 13
25 3 25 -9 33 -8 50 8 38 33 22 78 -61 177 l-23 27 -44 -56z"/>
<path d="M344 420 c-131 -177 -139 -195 -102 -250 28 -42 78 -53 109 -24 18
16 19 16 19 0 0 -9 -7 -30 -15 -46 l-16 -30 41 0 c22 0 40 2 40 4 0 2 -7 23
-15 46 -18 50 -15 58 10 30 43 -47 125 -5 125 65 0 45 -15 73 -77 151 -27 34
-55 71 -64 84 l-15 23 -40 -53z"/>
<path d="M755 10 c-3 -5 -1 -10 4 -10 6 0 11 5 11 10 0 6 -2 10 -4 10 -3 0 -8
-4 -11 -10z"/>
</g>
</svg>
