<?xml version="1.0" standalone="no"?>
<!DOCTYPE svg PUBLIC "-//W3C//DTD SVG 20010904//EN"
 "http://www.w3.org/TR/2001/REC-SVG-20010904/DTD/svg10.dtd">
<svg version="1.0" xmlns="http://www.w3.org/2000/svg"
 width="77.000000pt" height="115.000000pt" viewBox="0 0 77.000000 115.000000"
 preserveAspectRatio="xMidYMid meet">

<g transform="translate(0.000000,115.000000) scale(0.100000,-0.100000)"
fill="#000000" stroke="none">
<path d="M755 1140 c3 -5 8 -10 11 -10 2 0 4 5 4 10 0 6 -5 10 -11 10 -5 0 -7
-4 -4 -10z"/>
<path d="M48 1085 c-4 -19 -1 -25 13 -25 11 0 19 5 19 10 0 6 18 10 41 10 35
0 40 -2 34 -17 -46 -106 -55 -163 -26 -163 14 0 20 10 25 48 3 26 17 67 31 91
39 68 36 71 -54 71 -76 0 -79 -1 -83 -25z"/>
<path d="M81 793 c-57 -74 -68 -106 -47 -138 18 -27 54 -33 74 -13 16 16 17
-5 2 -33 -9 -17 -7 -19 16 -19 19 0 25 4 20 15 -3 8 -9 22 -12 29 -5 13 -1 13
25 3 25 -9 33 -8 50 8 12 10 21 28 21 40 0 21 -39 87 -82 137 l-23 27 -44 -56z"/>
<path d="M322 391 c-81 -104 -106 -153 -97 -189 15 -63 85 -94 127 -55 22 20
23 5 4 -42 l-15 -35 40 0 c21 0 39 2 39 4 0 2 -7 23 -15 46 -18 50 -15 58 10
30 22 -24 62 -26 92 -5 24 17 39 71 29 107 -4 17 -126 191 -150 216 -2 1 -30
-34 -64 -77z"/>
<path d="M755 10 c-3 -5 -1 -10 4 -10 6 0 11 5 11 10 0 6 -2 10 -4 10 -3 0 -8
-4 -11 -10z"/>
</g>
</svg>
