<?xml version="1.0" standalone="no"?>
<!DOCTYPE svg PUBLIC "-//W3C//DTD SVG 20010904//EN"
 "http://www.w3.org/TR/2001/REC-SVG-20010904/DTD/svg10.dtd">
<svg version="1.0" xmlns="http://www.w3.org/2000/svg"
 width="77.000000pt" height="115.000000pt" viewBox="0 0 77.000000 115.000000"
 preserveAspectRatio="xMidYMid meet">

<g transform="translate(0.000000,115.000000) scale(0.100000,-0.100000)"
fill="#000000" stroke="none">
<path d="M755 1140 c3 -5 8 -10 11 -10 2 0 4 5 4 10 0 6 -5 10 -11 10 -5 0 -7
-4 -4 -10z"/>
<path d="M72 1094 c-23 -16 -29 -53 -11 -71 8 -8 8 -17 0 -31 -29 -54 1 -92
71 -92 31 0 50 6 61 18 20 22 22 53 5 70 -10 10 -10 17 0 32 17 28 15 44 -11
68 -28 26 -82 29 -115 6z m96 -41 c-3 -24 -8 -28 -41 -31 -26 -2 -39 1 -43 12
-12 31 4 46 46 46 39 0 41 -1 38 -27z m-3 -93 c0 -31 -3 -35 -28 -38 -34 -4
-57 13 -57 43 0 30 9 36 50 33 33 -3 35 -5 35 -38z"/>
<path d="M81 793 c-57 -74 -68 -106 -47 -138 18 -27 54 -33 74 -13 15 15 15 8
2 -26 -9 -24 -7 -26 16 -26 19 0 25 4 20 15 -19 46 -19 50 -5 38 31 -30 89 -1
89 44 0 20 -30 69 -80 131 l-25 32 -44 -57z"/>
<path d="M324 394 c-80 -101 -107 -152 -99 -189 12 -64 74 -94 123 -59 22 15
23 15 16 -13 -4 -15 -11 -36 -16 -46 -8 -15 -4 -17 32 -17 43 0 45 2 31 28 -4
9 -11 31 -15 47 l-8 30 24 -22 c39 -37 89 -29 113 18 31 60 21 86 -91 231
l-52 67 -58 -75z"/>
<path d="M755 10 c-3 -5 -1 -10 4 -10 6 0 11 5 11 10 0 6 -2 10 -4 10 -3 0 -8
-4 -11 -10z"/>
</g>
</svg>
