<?xml version="1.0" standalone="no"?>
<!DOCTYPE svg PUBLIC "-//W3C//DTD SVG 20010904//EN"
 "http://www.w3.org/TR/2001/REC-SVG-20010904/DTD/svg10.dtd">
<svg version="1.0" xmlns="http://www.w3.org/2000/svg"
 width="77.000000pt" height="115.000000pt" viewBox="0 0 77.000000 115.000000"
 preserveAspectRatio="xMidYMid meet">

<g transform="translate(0.000000,115.000000) scale(0.100000,-0.100000)"
fill="#000000" stroke="none">
<path d="M755 1140 c3 -5 8 -10 11 -10 2 0 4 5 4 10 0 6 -5 10 -11 10 -5 0 -7
-4 -4 -10z"/>
<path d="M67 1085 c-57 -53 -24 -115 61 -115 39 0 43 -2 40 -22 -2 -18 -11
-24 -36 -26 -18 -2 -40 2 -49 9 -18 15 -43 21 -43 10 0 -38 105 -55 148 -25
19 13 22 24 22 84 0 67 -1 69 -34 89 -44 28 -75 26 -109 -4z m103 -50 c0 -35
0 -35 -45 -35 -45 0 -45 0 -45 35 0 35 0 35 45 35 45 0 45 0 45 -35z"/>
<path d="M82 795 c-57 -73 -69 -108 -48 -140 18 -27 53 -33 75 -12 14 12 14 8
-5 -38 -5 -11 1 -15 21 -15 20 0 26 4 21 15 -19 46 -19 50 -5 38 31 -30 89 1
89 48 0 16 -33 69 -80 127 l-25 32 -43 -55z"/>
<path d="M324 394 c-80 -101 -107 -152 -99 -189 12 -64 74 -94 123 -59 22 15
23 15 16 -13 -4 -15 -11 -36 -16 -46 -8 -15 -4 -17 32 -17 43 0 45 2 31 28 -4
9 -11 30 -15 45 l-7 28 23 -20 c37 -35 90 -26 113 20 31 59 20 86 -96 238
l-47 60 -58 -75z"/>
<path d="M755 10 c-3 -5 -1 -10 4 -10 6 0 11 5 11 10 0 6 -2 10 -4 10 -3 0 -8
-4 -11 -10z"/>
</g>
</svg>
