<?xml version="1.0" standalone="no"?>
<!DOCTYPE svg PUBLIC "-//W3C//DTD SVG 20010904//EN"
 "http://www.w3.org/TR/2001/REC-SVG-20010904/DTD/svg10.dtd">
<svg version="1.0" xmlns="http://www.w3.org/2000/svg"
 width="77.000000pt" height="115.000000pt" viewBox="0 0 77.000000 115.000000"
 preserveAspectRatio="xMidYMid meet">

<g transform="translate(0.000000,115.000000) scale(0.100000,-0.100000)"
fill="#000000" stroke="none">
<path d="M740 1146 c0 -2 7 -6 15 -10 8 -3 15 -1 15 4 0 6 -7 10 -15 10 -8 0
-15 -2 -15 -4z"/>
<path d="M115 1098 c-2 -7 -14 -47 -26 -88 -12 -41 -28 -80 -35 -86 -22 -18
-16 -24 23 -24 29 0 34 3 25 12 -24 24 -13 38 28 38 41 0 52 -14 28 -38 -9 -9
-4 -12 25 -12 36 0 50 13 24 23 -7 3 -21 38 -31 78 -10 40 -22 81 -27 91 -11
21 -28 24 -34 6z m28 -65 c2 -5 7 -20 11 -35 6 -26 4 -28 -24 -28 -29 0 -40
13 -20 25 6 3 10 15 10 26 0 19 15 26 23 12z"/>
<path d="M350 1060 c0 -11 -6 -29 -12 -40 -11 -17 -10 -22 2 -30 12 -7 12 -12
2 -22 -15 -15 -16 -45 -1 -50 8 -3 8 -11 -2 -27 -11 -19 -11 -25 -1 -28 6 -3
12 -15 12 -28 0 -13 4 -26 9 -30 5 -3 12 -19 16 -35 4 -17 13 -30 21 -30 15 0
20 16 7 22 -5 2 -16 18 -25 36 -14 26 -18 58 -18 148 0 111 5 129 29 100 27
-32 180 -61 195 -37 3 5 21 12 40 15 19 4 37 13 40 21 3 8 10 15 16 15 12 0
14 -222 3 -234 -5 -4 -14 -22 -21 -39 -7 -18 -9 -21 -6 -7 11 41 17 240 7 240
-5 0 -15 -6 -21 -12 -9 -9 -48 -13 -119 -13 -76 0 -108 4 -110 13 -3 6 -11 12
-20 12 -12 0 -14 -17 -11 -110 2 -67 7 -114 14 -118 15 -10 25 -45 16 -57 -4
-5 -20 -17 -37 -25 -22 -12 -31 -24 -33 -48 -2 -18 -2 -32 0 -32 2 0 21 9 42
19 36 19 66 19 66 0 0 -5 -7 -12 -15 -15 -24 -9 -17 -31 11 -38 14 -4 35 -16
47 -26 28 -26 43 -25 71 5 13 14 33 25 45 25 25 0 26 8 6 37 -14 20 -14 22 5
28 13 4 34 -1 56 -14 48 -28 56 -27 52 12 -2 25 -10 35 -35 47 -35 16 -35 25
-7 84 8 16 14 37 14 48 0 10 7 18 15 18 21 0 19 27 -2 39 -17 10 -17 12 0 25
20 15 23 28 5 21 -8 -3 -14 4 -14 20 -1 15 3 25 12 25 8 0 14 7 14 15 0 8 -7
15 -15 15 -10 0 -15 10 -15 30 0 29 -13 40 -25 20 -5 -9 -29 -21 -97 -48 -31
-13 -46 -1 -23 18 29 24 17 40 -30 40 -49 0 -56 -11 -28 -42 18 -20 10 -39 -9
-20 -7 7 -23 12 -37 12 -15 0 -39 11 -55 25 -35 30 -46 31 -46 5z m210 0 c0
-5 -16 -10 -36 -10 -21 0 -33 4 -29 10 3 6 19 10 36 10 16 0 29 -4 29 -10z
m-55 -110 c17 -19 17 -21 0 -40 -16 -18 -16 -20 -2 -20 19 0 21 -8 7 -30 -9
-13 -11 -13 -21 0 -8 12 -10 10 -5 -10 3 -17 -3 -34 -20 -54 -27 -31 -46 -28
-26 4 10 17 10 20 -3 20 -19 0 -19 9 -1 29 18 22 28 68 16 76 -13 8 6 45 24
45 7 0 21 -9 31 -20z m91 6 c17 -17 18 -36 3 -36 -5 0 -7 -5 -4 -10 4 -7 14
-2 26 11 11 12 22 19 27 14 4 -4 1 -10 -5 -12 -15 -5 -17 -33 -3 -33 6 0 10
-11 10 -25 0 -14 -4 -25 -10 -25 -5 0 -10 11 -10 25 0 15 -6 25 -15 25 -15 0
-11 -23 9 -49 8 -11 8 -15 -1 -18 -8 -3 -11 -14 -7 -29 8 -31 -1 -30 -31 4
-16 18 -22 35 -19 52 2 14 1 19 -2 12 -5 -10 -9 -10 -20 -1 -19 15 -18 29 3
29 15 0 15 1 0 18 -16 17 -15 20 1 40 20 26 28 27 48 8z m-169 -32 c13 -13 14
-20 5 -35 -7 -10 -12 -26 -12 -34 0 -8 -4 -15 -10 -15 -5 0 -10 11 -10 25 0
14 5 25 10 25 6 0 10 7 10 15 0 8 -4 15 -10 15 -5 0 -10 5 -10 10 0 14 9 12
27 -6z m53 -144 c0 -5 -4 -10 -10 -10 -5 0 -10 5 -10 10 0 6 5 10 10 10 6 0
10 -4 10 -10z m110 0 c0 -5 -4 -10 -10 -10 -5 0 -10 5 -10 10 0 6 5 10 10 10
6 0 10 -4 10 -10z m-2 -52 c7 -7 12 -9 12 -5 0 4 17 0 38 -8 20 -9 39 -15 42
-15 2 1 6 -2 7 -7 2 -5 -66 -9 -152 -9 -166 1 -192 10 -107 38 57 19 144 22
160 6z m-218 -47 c0 -6 -4 -13 -10 -16 -5 -3 -10 1 -10 9 0 9 5 16 10 16 6 0
10 -4 10 -9z m350 -6 c0 -8 -4 -15 -10 -15 -5 0 -10 7 -10 15 0 8 5 15 10 15
6 0 10 -7 10 -15z m-185 -35 c-13 -21 10 -9 32 17 13 14 23 21 23 15 0 -6 -7
-17 -15 -26 -17 -17 -4 -31 20 -22 8 3 15 1 15 -4 0 -9 -37 -15 -69 -11 -7 2
-10 -2 -7 -7 3 -6 3 -18 0 -27 -6 -16 -8 -16 -16 -1 -5 9 -7 20 -4 25 3 5 0 9
-7 8 -40 -1 -67 4 -67 14 0 6 9 9 20 6 26 -7 34 7 14 27 -8 9 -11 16 -5 16 6
0 15 -9 21 -20 6 -11 15 -20 21 -20 6 0 8 4 5 9 -4 5 -3 17 0 26 6 16 8 16 16
1 5 -9 6 -21 3 -26z"/>
<path d="M76 790 c-53 -68 -68 -117 -41 -143 19 -19 38 -21 66 -7 17 10 18 8
9 -15 -13 -35 -13 -35 15 -35 22 0 24 2 15 26 -13 34 -13 39 4 24 23 -18 59
-8 74 22 18 39 7 63 -88 181 -4 4 -28 -20 -54 -53z"/>
<path d="M330 409 c-70 -93 -110 -161 -110 -187 0 -30 25 -78 45 -86 28 -10
60 -7 83 10 26 18 26 18 7 -35 l-14 -41 40 0 c35 0 39 2 31 18 -5 9 -12 30
-16 45 -7 28 -6 28 16 13 42 -30 91 -17 116 31 19 35 14 66 -18 116 -24 38
-131 179 -134 176 -1 0 -21 -27 -46 -60z"/>
<path d="M750 10 c-13 -8 -12 -10 3 -10 9 0 17 5 17 10 0 12 -1 12 -20 0z"/>
</g>
</svg>
