<?xml version="1.0" standalone="no"?>
<!DOCTYPE svg PUBLIC "-//W3C//DTD SVG 20010904//EN"
 "http://www.w3.org/TR/2001/REC-SVG-20010904/DTD/svg10.dtd">
<svg version="1.0" xmlns="http://www.w3.org/2000/svg"
 width="77.000000pt" height="115.000000pt" viewBox="0 0 77.000000 115.000000"
 preserveAspectRatio="xMidYMid meet">

<g transform="translate(0.000000,115.000000) scale(0.100000,-0.100000)"
fill="#000000" stroke="none">
<path d="M755 1140 c3 -5 8 -10 11 -10 2 0 4 5 4 10 0 6 -5 10 -11 10 -5 0 -7
-4 -4 -10z"/>
<path d="M130 1101 c0 -5 7 -12 15 -15 13 -5 15 -21 13 -83 l-3 -78 -35 0
c-28 0 -35 4 -40 25 -3 14 -14 26 -24 28 -16 3 -18 0 -12 -24 11 -44 25 -54
71 -54 62 0 75 20 75 113 0 45 4 77 10 77 6 0 10 5 10 10 0 6 -18 10 -40 10
-22 0 -40 -4 -40 -9z"/>
<path d="M310 1057 c0 -7 18 -31 40 -52 47 -46 50 -69 14 -106 l-26 -27 21
-21 c16 -16 19 -28 14 -53 -3 -18 -10 -38 -15 -44 -4 -6 -6 -18 -3 -27 4 -9
-2 -21 -15 -30 -12 -9 -21 -19 -19 -24 11 -26 149 -143 169 -143 16 0 56 33
126 102 81 79 104 108 104 129 0 32 -23 53 -50 46 -19 -5 -20 0 -20 82 0 86 0
87 35 121 61 59 58 60 -170 60 -161 0 -205 -3 -205 -13z m130 -52 c10 -12 10
-15 -3 -15 -8 0 -20 7 -27 15 -10 12 -10 15 3 15 8 0 20 -7 27 -15z m94 0 c-4
-8 -12 -15 -19 -15 -7 0 -15 7 -19 15 -4 11 1 15 19 15 18 0 23 -4 19 -15z
m90 0 c-4 -8 -12 -15 -20 -15 -17 0 -18 17 -1 23 22 9 27 7 21 -8z m-118 -56
c2 -8 6 -26 10 -40 8 -34 -44 -122 -65 -110 -7 5 -11 13 -7 19 3 6 1 22 -5 35
-10 22 -16 25 -48 20 l-36 -6 29 31 c16 17 26 37 23 45 -9 23 3 28 52 24 28
-2 45 -9 47 -18z m-76 -99 c0 -5 -6 -10 -12 -10 -8 0 -9 -3 -3 -8 16 -12 36
-52 26 -52 -6 0 -13 5 -16 10 -3 6 -16 10 -28 10 -18 0 -19 2 -7 11 12 8 12
12 2 16 -10 4 -10 8 -1 19 13 16 39 19 39 4z m-10 -70 c0 -5 -9 -10 -21 -10
-11 0 -17 5 -14 10 3 6 13 10 21 10 8 0 14 -4 14 -10z m102 -53 c-31 -32 -32
-34 -14 -50 10 -9 22 -15 25 -12 4 3 4 2 1 -2 -3 -4 -13 -8 -21 -8 -9 0 -18
-6 -21 -14 -3 -9 0 -11 8 -6 8 5 11 4 6 -3 -4 -6 -14 -8 -23 -5 -12 5 -14 3
-8 -8 5 -8 4 -11 -1 -6 -5 5 -9 16 -9 25 0 10 -7 16 -17 16 -21 -2 -13 22 10
31 15 6 15 8 -2 21 -11 7 -17 17 -13 20 4 4 14 1 22 -6 14 -11 20 -9 43 13 15
15 31 27 36 27 6 0 -5 -15 -22 -33z m70 -19 c-7 -7 -12 -8 -12 -2 0 14 12 26
19 19 2 -3 -1 -11 -7 -17z m-180 -32 c10 -20 9 -20 -11 2 -12 12 -27 19 -33
16 -7 -4 -8 -2 -4 4 9 15 34 4 48 -22z m151 9 c-3 -9 -8 -14 -10 -11 -3 3 -2
9 2 15 9 16 15 13 8 -4z m-178 -37 l40 -42 -42 34 c-35 30 -52 50 -40 50 2 0
21 -19 42 -42z m218 4 c-10 -10 -20 -17 -22 -16 -6 5 20 34 30 34 5 0 1 -8 -8
-18z m-148 -70 c-3 -3 -11 0 -18 7 -9 10 -8 11 6 5 10 -3 15 -9 12 -12z m36
-30 c-7 -2 -18 1 -23 6 -8 8 -4 9 13 5 13 -4 18 -8 10 -11z"/>
<path d="M430 933 c0 -5 4 -15 10 -23 8 -12 10 -12 16 4 5 13 9 15 15 5 4 -8
11 -10 14 -7 12 12 -6 28 -31 28 -13 0 -24 -3 -24 -7z"/>
<path d="M470 670 c0 -5 5 -10 10 -10 6 0 10 5 10 10 0 6 -4 10 -10 10 -5 0
-10 -4 -10 -10z"/>
<path d="M76 788 c-56 -75 -64 -100 -42 -133 18 -27 53 -33 75 -12 14 12 14 8
-5 -38 -5 -11 1 -15 21 -15 20 0 26 4 21 15 -19 46 -19 50 -5 38 36 -34 98 10
85 60 -4 17 -73 117 -101 145 -1 1 -23 -25 -49 -60z"/>
<path d="M316 385 c-37 -46 -73 -100 -82 -120 -37 -89 41 -170 114 -119 22 15
23 15 16 -13 -4 -15 -11 -36 -16 -46 -8 -15 -4 -17 32 -17 22 0 40 2 40 4 0 2
-7 20 -15 39 -21 50 -19 61 7 37 40 -37 96 -23 118 29 18 43 6 88 -38 146 -21
28 -54 71 -74 97 l-36 47 -66 -84z"/>
<path d="M750 10 c-13 -8 -12 -10 3 -10 9 0 17 5 17 10 0 12 -1 12 -20 0z"/>
</g>
</svg>
