<?xml version="1.0" standalone="no"?>
<!DOCTYPE svg PUBLIC "-//W3C//DTD SVG 20010904//EN"
 "http://www.w3.org/TR/2001/REC-SVG-20010904/DTD/svg10.dtd">
<svg version="1.0" xmlns="http://www.w3.org/2000/svg"
 width="77.000000pt" height="115.000000pt" viewBox="0 0 77.000000 115.000000"
 preserveAspectRatio="xMidYMid meet">

<g transform="translate(0.000000,115.000000) scale(0.100000,-0.100000)"
fill="#000000" stroke="none">
<path d="M755 1140 c3 -5 8 -10 11 -10 2 0 4 5 4 10 0 6 -5 10 -11 10 -5 0 -7
-4 -4 -10z"/>
<path d="M66 1094 c-22 -23 -26 -35 -26 -89 0 -87 20 -105 114 -103 52 1 66 4
55 12 -10 8 -13 27 -11 69 5 69 -10 110 -44 126 -38 17 -59 13 -88 -15z m94
-73 c0 -33 -4 -63 -10 -66 -5 -3 -10 -1 -10 4 0 6 -9 11 -20 11 -11 0 -20 -4
-20 -10 0 -5 7 -10 15 -10 8 0 15 -4 15 -10 0 -5 -11 -10 -25 -10 -24 0 -25 2
-25 75 l0 75 40 0 40 0 0 -59z"/>
<path d="M493 1069 c-20 -20 -23 -21 -38 -5 -9 9 -20 14 -24 11 -5 -2 -11 -38
-13 -79 -3 -42 -10 -81 -15 -88 -6 -7 -16 -38 -23 -68 -7 -30 -16 -59 -20 -65
-10 -14 -30 -99 -30 -128 0 -15 14 -39 37 -61 l37 -36 106 0 106 0 47 48 47
48 0 96 c0 91 -2 100 -32 150 -22 37 -32 69 -35 108 -6 81 -9 85 -37 67 -22
-15 -25 -15 -41 3 -23 26 -45 25 -72 -1z m-23 -39 c11 0 24 8 29 18 10 16 10
16 11 0 0 -11 8 -18 20 -18 12 0 20 7 20 18 1 16 1 16 11 0 5 -10 18 -18 29
-18 10 0 21 8 23 18 4 13 5 11 6 -5 1 -22 -2 -23 -89 -23 -87 0 -90 1 -89 23
1 16 2 18 6 5 2 -10 13 -18 23 -18z m101 -70 c25 -14 24 -26 -1 -33 -11 -3
-20 -10 -20 -16 0 -15 27 -14 33 2 9 20 27 -14 24 -43 -1 -14 -11 -38 -21 -53
-25 -36 -70 -34 -99 5 -22 29 -17 78 7 78 7 0 19 6 25 14 9 11 7 15 -10 19
-19 5 -20 8 -9 21 14 18 43 20 71 6z m-71 -185 c10 -12 10 -15 -4 -15 -9 0
-16 7 -16 15 0 8 2 15 4 15 2 0 9 -7 16 -15z m90 0 c0 -8 -7 -15 -16 -15 -14
0 -14 3 -4 15 7 8 14 15 16 15 2 0 4 -7 4 -15z m37 -52 c3 -9 -4 -10 -24 -4
-20 6 -32 4 -41 -5 -16 -18 -41 -18 -48 0 -4 10 -14 12 -40 6 -31 -7 -43 -2
-28 13 12 11 177 3 181 -10z m-77 -63 c-6 -11 -16 -20 -22 -20 -6 0 -3 9 7 20
10 11 20 20 22 20 2 0 -1 -9 -7 -20z m-40 -30 c0 -5 -5 -12 -11 -16 -12 -7
-31 15 -23 28 6 9 34 -1 34 -12z m68 -8 c2 -7 -2 -10 -12 -6 -9 3 -16 11 -16
16 0 13 23 5 28 -10z m-36 -34 c-8 -8 -15 -9 -22 -2 -6 6 -8 19 -4 28 6 16 8
16 22 2 13 -12 14 -18 4 -28z m85 7 c-9 -9 -16 -10 -25 -2 -16 12 3 28 24 20
10 -4 10 -8 1 -18z m-123 -16 c4 -4 -3 -6 -17 -6 -20 0 -23 2 -14 12 7 7 14
10 17 7 3 -4 9 -10 14 -13z m90 0 c4 -4 -4 -6 -18 -6 -21 0 -24 2 -15 13 7 8
15 11 18 7 3 -4 10 -11 15 -14z m-150 3 c2 -4 -4 -8 -14 -8 -10 0 -16 4 -14 8
3 4 9 8 14 8 5 0 11 -4 14 -8z"/>
<path d="M558 833 c7 -3 16 -2 19 1 4 3 -2 6 -13 5 -11 0 -14 -3 -6 -6z"/>
<path d="M76 788 c-56 -75 -64 -100 -42 -133 18 -27 53 -33 75 -12 14 12 14 8
-5 -38 -5 -11 1 -15 20 -15 23 0 25 2 16 26 -13 34 -13 41 2 26 20 -20 56 -14
74 13 25 38 10 69 -87 188 -3 5 -27 -20 -53 -55z"/>
<path d="M321 393 c-76 -94 -105 -152 -96 -194 14 -61 74 -87 123 -53 22 15
23 15 16 -13 -4 -15 -11 -36 -16 -46 -8 -15 -4 -17 32 -17 22 0 40 2 40 4 0 2
-7 20 -15 39 -20 49 -19 61 5 37 35 -35 92 -25 115 21 29 55 16 93 -70 199
-28 36 -56 73 -61 83 -9 15 -19 6 -73 -60z"/>
<path d="M750 10 c-13 -8 -12 -10 3 -10 9 0 17 5 17 10 0 12 -1 12 -20 0z"/>
</g>
</svg>
