<?xml version="1.0" standalone="no"?>
<!DOCTYPE svg PUBLIC "-//W3C//DTD SVG 20010904//EN"
 "http://www.w3.org/TR/2001/REC-SVG-20010904/DTD/svg10.dtd">
<svg version="1.0" xmlns="http://www.w3.org/2000/svg"
 width="77.000000pt" height="115.000000pt" viewBox="0 0 77.000000 115.000000"
 preserveAspectRatio="xMidYMid meet">

<g transform="translate(0.000000,115.000000) scale(0.100000,-0.100000)"
fill="#000000" stroke="none">
<path d="M755 1140 c3 -5 8 -10 11 -10 2 0 4 5 4 10 0 6 -5 10 -11 10 -5 0 -7
-4 -4 -10z"/>
<path d="M40 1101 c0 -6 5 -13 10 -16 6 -3 10 -42 10 -86 0 -46 -4 -79 -10
-79 -5 0 -10 -4 -10 -10 0 -5 13 -10 29 -10 28 0 28 1 24 48 l-5 47 35 -34
c20 -19 33 -40 30 -47 -4 -10 4 -14 31 -14 20 0 36 2 36 5 0 2 -22 25 -50 51
-27 26 -50 49 -50 53 0 3 18 26 40 50 22 24 40 45 40 47 0 2 -16 4 -36 4 -28
0 -35 -3 -30 -15 5 -14 -25 -55 -40 -55 -4 0 -4 16 -1 35 5 33 4 35 -24 35
-16 0 -29 -4 -29 -9z"/>
<path d="M365 931 l7 -139 -25 -17 c-22 -14 -26 -24 -25 -63 0 -44 5 -52 65
-116 56 -61 67 -68 83 -58 14 9 21 8 30 -3 16 -19 64 -19 80 0 9 11 16 12 30
3 15 -10 25 -4 64 38 25 27 46 55 46 61 0 7 -16 30 -35 52 l-35 38 0 101 c0
56 4 104 10 107 6 3 10 35 10 71 0 57 -2 64 -20 64 -12 0 -20 -7 -20 -17 -1
-17 -1 -17 -14 0 -7 9 -17 17 -21 17 -4 0 -14 -8 -21 -17 -13 -17 -13 -17 -14
0 0 10 -8 17 -20 17 -12 0 -20 -7 -20 -17 -1 -17 -1 -17 -14 0 -16 21 -36 22
-36 2 0 -8 -4 -15 -10 -15 -5 0 -10 7 -10 15 0 22 -40 19 -40 -2 -1 -17 -1
-17 -14 0 -7 9 -19 17 -26 17 -10 0 -11 -31 -5 -139z m40 89 c8 0 19 8 24 18
10 16 10 16 11 0 0 -11 8 -18 20 -18 12 0 20 7 21 18 1 16 2 16 6 0 5 -22 43
-24 43 -3 0 8 5 15 11 15 5 0 7 -5 4 -10 -12 -19 27 -24 41 -5 13 17 14 17 14
2 0 -23 37 -22 43 1 4 13 5 11 6 -5 1 -23 0 -23 -139 -23 -139 0 -140 0 -140
23 1 20 2 20 11 5 5 -10 16 -18 24 -18z m231 -101 c3 -5 -4 -9 -16 -9 -26 0
-37 -27 -22 -51 16 -24 15 -29 -3 -29 -14 0 -32 43 -27 68 4 18 -45 15 -52 -4
-3 -8 -2 -13 3 -10 4 3 16 -3 25 -13 16 -17 15 -20 -19 -45 l-35 -27 0 48 c1
52 15 79 45 84 29 6 94 -2 101 -12z m4 -53 c0 -3 -4 -8 -10 -11 -5 -3 -10 -1
-10 4 0 6 5 11 10 11 6 0 10 -2 10 -4z m-30 -88 c0 -5 -12 -9 -27 -9 l-28 -2
28 -4 c34 -5 36 -23 1 -23 -32 0 -64 17 -64 34 0 16 72 35 82 21 4 -5 8 -13 8
-17z m-135 -118 l30 -35 -28 25 c-16 14 -33 34 -39 45 -11 21 -10 20 37 -35z
m205 17 c0 -2 -12 -14 -27 -28 l-28 -24 24 28 c23 25 31 32 31 24z m-70 -20
c0 -2 -12 -14 -27 -28 l-28 -24 24 28 c23 25 31 32 31 24z m-151 -41 c-3 -3
-11 5 -18 17 -13 21 -12 21 5 5 10 -10 16 -20 13 -22z m105 -22 c18 -26 18
-26 -2 -47 -21 -20 -22 -20 -42 -2 -24 22 -25 25 -2 53 21 27 23 27 46 -4z
m39 1 c-3 -9 -8 -14 -10 -11 -3 3 -2 9 2 15 9 16 15 13 8 -4z"/>
<path d="M83 798 c-70 -91 -78 -121 -42 -153 17 -16 25 -17 49 -8 28 10 28 10
19 -14 -12 -33 -12 -33 16 -33 22 0 24 2 15 26 -13 34 -13 39 4 24 23 -18 59
-8 74 22 18 39 6 64 -88 181 -4 4 -25 -16 -47 -45z"/>
<path d="M370 461 c0 -5 -25 -40 -56 -78 -75 -91 -97 -136 -89 -180 12 -66 72
-93 123 -57 22 15 23 15 16 -13 -4 -15 -11 -36 -16 -45 -8 -16 -4 -18 30 -18
l40 0 -14 38 c-19 53 -17 65 6 42 35 -35 92 -22 118 27 26 49 10 89 -79 202
-33 40 -59 77 -59 82 0 5 -4 9 -10 9 -5 0 -10 -4 -10 -9z"/>
<path d="M750 10 c-13 -8 -12 -10 3 -10 9 0 17 5 17 10 0 12 -1 12 -20 0z"/>
</g>
</svg>
