<?xml version="1.0" standalone="no"?>
<!DOCTYPE svg PUBLIC "-//W3C//DTD SVG 20010904//EN"
 "http://www.w3.org/TR/2001/REC-SVG-20010904/DTD/svg10.dtd">
<svg version="1.0" xmlns="http://www.w3.org/2000/svg"
 width="77.000000pt" height="115.000000pt" viewBox="0 0 77.000000 115.000000"
 preserveAspectRatio="xMidYMid meet">

<g transform="translate(0.000000,115.000000) scale(0.100000,-0.100000)"
fill="#000000" stroke="none">
<path d="M740 1146 c0 -2 7 -6 15 -10 8 -3 15 -1 15 4 0 6 -7 10 -15 10 -8 0
-15 -2 -15 -4z"/>
<path d="M42 993 c3 -93 5 -108 21 -111 15 -3 17 7 17 107 0 105 -1 111 -20
111 -20 0 -21 -5 -18 -107z"/>
<path d="M116 1084 c-12 -11 -16 -36 -16 -90 0 -61 4 -78 20 -94 24 -24 48
-25 78 -4 20 14 22 24 22 98 0 50 -5 87 -12 94 -17 17 -74 15 -92 -4z m69 -89
c0 -75 -1 -80 -22 -83 -22 -3 -23 -1 -23 76 0 82 4 95 30 90 12 -3 15 -19 15
-83z"/>
<path d="M88 773 l-47 -63 48 -64 48 -63 18 29 c9 16 31 45 48 64 l30 35 -25
27 c-14 15 -36 43 -49 62 l-24 36 -47 -63z"/>
<path d="M352 423 c-11 -21 -43 -65 -70 -99 l-49 -60 44 -50 c24 -27 56 -70
71 -96 15 -27 29 -48 32 -48 3 0 15 18 27 40 13 21 45 65 72 97 l48 59 -34 39
c-18 22 -50 66 -70 98 -20 31 -39 57 -43 57 -3 0 -16 -17 -28 -37z"/>
<path d="M755 10 c-3 -5 -1 -10 4 -10 6 0 11 5 11 10 0 6 -2 10 -4 10 -3 0 -8
-4 -11 -10z"/>
</g>
</svg>
