<?xml version="1.0" standalone="no"?>
<!DOCTYPE svg PUBLIC "-//W3C//DTD SVG 20010904//EN"
 "http://www.w3.org/TR/2001/REC-SVG-20010904/DTD/svg10.dtd">
<svg version="1.0" xmlns="http://www.w3.org/2000/svg"
 width="77.000000pt" height="115.000000pt" viewBox="0 0 77.000000 115.000000"
 preserveAspectRatio="xMidYMid meet">

<g transform="translate(0.000000,115.000000) scale(0.100000,-0.100000)"
fill="#000000" stroke="none">
<path d="M0 1140 c0 -5 7 -7 15 -4 19 8 19 14 0 14 -8 0 -15 -4 -15 -10z"/>
<path d="M740 1146 c0 -2 7 -6 15 -10 8 -3 15 -1 15 4 0 6 -7 10 -15 10 -8 0
-15 -2 -15 -4z"/>
<path d="M68 1089 c-21 -12 -24 -49 -4 -49 7 0 16 9 19 20 4 16 14 20 45 20
22 0 45 -6 52 -15 14 -17 -9 -42 -82 -86 -43 -25 -48 -32 -48 -64 l0 -36 83 3
c81 3 82 3 85 31 3 22 -1 27 -17 27 -12 0 -21 -4 -21 -10 0 -5 -22 -10 -50
-10 -27 0 -50 4 -50 10 0 5 29 28 65 50 71 46 86 71 59 101 -19 21 -105 27
-136 8z"/>
<path d="M119 813 c-9 -16 -29 -45 -45 -66 l-27 -37 22 -30 c12 -17 32 -45 45
-64 l23 -34 47 64 48 65 -34 45 c-69 94 -61 88 -79 57z"/>
<path d="M340 400 c-23 -34 -55 -76 -71 -95 l-31 -35 59 -77 c32 -43 65 -89
74 -103 l16 -25 16 31 c8 16 41 62 72 102 l57 73 -31 34 c-16 19 -48 61 -71
95 -22 33 -43 60 -45 60 -2 0 -23 -27 -45 -60z"/>
</g>
</svg>
