<?xml version="1.0" standalone="no"?>
<!DOCTYPE svg PUBLIC "-//W3C//DTD SVG 20010904//EN"
 "http://www.w3.org/TR/2001/REC-SVG-20010904/DTD/svg10.dtd">
<svg version="1.0" xmlns="http://www.w3.org/2000/svg"
 width="77.000000pt" height="115.000000pt" viewBox="0 0 77.000000 115.000000"
 preserveAspectRatio="xMidYMid meet">

<g transform="translate(0.000000,115.000000) scale(0.100000,-0.100000)"
fill="#000000" stroke="none">
<path d="M0 1140 c0 -5 7 -7 15 -4 19 8 19 14 0 14 -8 0 -15 -4 -15 -10z"/>
<path d="M740 1146 c0 -2 7 -6 15 -10 8 -3 15 -1 15 4 0 6 -7 10 -15 10 -8 0
-15 -2 -15 -4z"/>
<path d="M60 1076 c0 -13 7 -26 15 -30 9 -3 15 0 15 9 0 11 12 15 45 15 47 0
56 -9 30 -30 -22 -18 -18 -38 8 -42 17 -2 22 -10 22 -33 0 -29 -2 -30 -52 -33
-43 -2 -53 0 -53 12 0 9 -7 16 -15 16 -24 0 -18 -27 11 -49 36 -29 85 -27 118
4 32 29 34 67 5 94 l-21 20 21 27 c11 15 21 31 21 35 0 5 -38 9 -85 9 -83 0
-85 -1 -85 -24z"/>
<path d="M111 799 c-14 -21 -34 -48 -47 -61 l-22 -23 23 -30 c12 -17 33 -46
47 -67 l25 -36 46 64 47 64 -46 63 c-25 34 -47 63 -47 64 -1 0 -13 -16 -26
-38z"/>
<path d="M340 400 c-23 -34 -55 -77 -72 -96 l-31 -35 22 -27 c12 -15 44 -59
73 -99 l51 -72 40 57 c22 31 55 76 74 99 l34 42 -46 56 c-25 32 -57 75 -71 96
-13 21 -26 39 -29 39 -2 0 -23 -27 -45 -60z"/>
</g>
</svg>
