<?xml version="1.0" standalone="no"?>
<!DOCTYPE svg PUBLIC "-//W3C//DTD SVG 20010904//EN"
 "http://www.w3.org/TR/2001/REC-SVG-20010904/DTD/svg10.dtd">
<svg version="1.0" xmlns="http://www.w3.org/2000/svg"
 width="77.000000pt" height="115.000000pt" viewBox="0 0 77.000000 115.000000"
 preserveAspectRatio="xMidYMid meet">

<g transform="translate(0.000000,115.000000) scale(0.100000,-0.100000)"
fill="#000000" stroke="none">
<path d="M0 1139 c0 -5 5 -7 10 -4 5 3 10 8 10 11 0 2 -4 4 -10 4 -5 0 -10 -5
-10 -11z"/>
<path d="M740 1146 c0 -2 7 -6 15 -10 8 -3 15 -1 15 4 0 6 -7 10 -15 10 -8 0
-15 -2 -15 -4z"/>
<path d="M97 1041 c-72 -76 -74 -91 -7 -91 56 0 78 -22 47 -45 -10 -7 -17 -15
-17 -19 0 -10 68 -7 75 4 3 6 1 10 -4 10 -6 0 -11 11 -11 25 0 16 6 25 15 25
8 0 15 7 15 15 0 8 -7 15 -15 15 -12 0 -15 13 -15 60 0 44 -4 60 -13 60 -8 0
-39 -27 -70 -59z m51 -37 c-2 -13 -14 -20 -38 -22 l-35 -4 29 31 c31 32 51 29
44 -5z"/>
<path d="M130 832 c0 -6 -21 -37 -46 -68 l-46 -56 25 -26 c13 -15 35 -44 49
-65 l25 -37 28 42 c15 24 36 53 47 64 19 22 19 22 -27 85 -56 76 -55 75 -55
61z"/>
<path d="M352 420 c-12 -22 -43 -65 -67 -95 -25 -30 -45 -58 -45 -63 0 -5 11
-19 25 -32 14 -13 46 -55 72 -92 l46 -67 40 57 c22 31 55 76 75 99 l34 43 -33
38 c-19 20 -52 63 -73 95 -22 31 -42 57 -45 57 -3 0 -16 -18 -29 -40z"/>
</g>
</svg>
