<?xml version="1.0" standalone="no"?>
<!DOCTYPE svg PUBLIC "-//W3C//DTD SVG 20010904//EN"
 "http://www.w3.org/TR/2001/REC-SVG-20010904/DTD/svg10.dtd">
<svg version="1.0" xmlns="http://www.w3.org/2000/svg"
 width="77.000000pt" height="115.000000pt" viewBox="0 0 77.000000 115.000000"
 preserveAspectRatio="xMidYMid meet">

<g transform="translate(0.000000,115.000000) scale(0.100000,-0.100000)"
fill="#000000" stroke="none">
<path d="M0 1139 c0 -5 5 -7 10 -4 5 3 10 8 10 11 0 2 -4 4 -10 4 -5 0 -10 -5
-10 -11z"/>
<path d="M740 1146 c0 -2 7 -6 15 -10 8 -3 15 -1 15 4 0 6 -7 10 -15 10 -8 0
-15 -2 -15 -4z"/>
<path d="M50 1056 l0 -44 63 1 62 2 3 -42 3 -43 -46 0 c-31 0 -47 5 -51 15 -7
18 -34 20 -34 3 1 -49 85 -75 135 -42 20 13 25 25 25 59 0 55 -22 75 -84 75
-40 0 -47 3 -44 18 3 14 16 18 66 20 90 4 76 22 -18 22 l-80 0 0 -44z"/>
<path d="M116 809 c-10 -17 -32 -46 -49 -65 l-30 -35 25 -27 c14 -15 36 -44
50 -65 l25 -37 28 42 c15 24 36 53 47 64 19 22 19 22 -27 85 -26 35 -48 65
-49 66 -1 1 -10 -11 -20 -28z"/>
<path d="M353 422 c-12 -21 -42 -64 -67 -94 -25 -31 -46 -61 -46 -66 0 -4 11
-19 25 -32 14 -13 46 -54 72 -91 l46 -68 54 77 c30 42 64 87 75 99 l21 22 -36
40 c-20 22 -53 65 -73 96 -20 30 -40 55 -43 55 -3 0 -16 -17 -28 -38z"/>
</g>
</svg>
