<?xml version="1.0" standalone="no"?>
<!DOCTYPE svg PUBLIC "-//W3C//DTD SVG 20010904//EN"
 "http://www.w3.org/TR/2001/REC-SVG-20010904/DTD/svg10.dtd">
<svg version="1.0" xmlns="http://www.w3.org/2000/svg"
 width="77.000000pt" height="115.000000pt" viewBox="0 0 77.000000 115.000000"
 preserveAspectRatio="xMidYMid meet">

<g transform="translate(0.000000,115.000000) scale(0.100000,-0.100000)"
fill="#000000" stroke="none">
<path d="M0 1139 c0 -5 5 -7 10 -4 5 3 10 8 10 11 0 2 -4 4 -10 4 -5 0 -10 -5
-10 -11z"/>
<path d="M740 1146 c0 -2 7 -6 15 -10 8 -3 15 -1 15 4 0 6 -7 10 -15 10 -8 0
-15 -2 -15 -4z"/>
<path d="M72 1084 c-19 -13 -22 -24 -22 -85 0 -67 1 -70 33 -89 43 -27 77 -25
110 5 53 50 25 105 -56 105 -50 0 -62 9 -52 40 5 16 15 20 46 20 26 0 42 -5
45 -15 6 -16 44 -21 44 -7 0 38 -104 57 -148 26z m108 -120 l0 -35 -47 3 c-37
2 -49 7 -51 21 -7 36 6 47 53 47 45 0 45 0 45 -36z"/>
<path d="M116 809 c-10 -17 -32 -46 -49 -65 l-30 -35 25 -27 c14 -15 36 -44
50 -65 l25 -37 28 42 c15 24 36 53 47 64 19 22 19 22 -27 85 -26 35 -48 65
-49 66 -1 1 -10 -11 -20 -28z"/>
<path d="M353 422 c-12 -21 -42 -64 -67 -94 -25 -31 -46 -61 -46 -66 0 -4 11
-19 25 -32 14 -13 46 -54 72 -91 l46 -68 54 77 c30 42 64 87 76 99 l20 22 -39
43 c-22 24 -55 67 -73 96 -19 28 -37 52 -40 52 -3 0 -16 -17 -28 -38z"/>
</g>
</svg>
