<?xml version="1.0" standalone="no"?>
<!DOCTYPE svg PUBLIC "-//W3C//DTD SVG 20010904//EN"
 "http://www.w3.org/TR/2001/REC-SVG-20010904/DTD/svg10.dtd">
<svg version="1.0" xmlns="http://www.w3.org/2000/svg"
 width="77.000000pt" height="115.000000pt" viewBox="0 0 77.000000 115.000000"
 preserveAspectRatio="xMidYMid meet">

<g transform="translate(0.000000,115.000000) scale(0.100000,-0.100000)"
fill="#000000" stroke="none">
<path d="M0 1139 c0 -5 5 -7 10 -4 5 3 10 8 10 11 0 2 -4 4 -10 4 -5 0 -10 -5
-10 -11z"/>
<path d="M740 1146 c0 -2 7 -6 15 -10 8 -3 15 -1 15 4 0 6 -7 10 -15 10 -8 0
-15 -2 -15 -4z"/>
<path d="M40 1075 c0 -18 5 -25 20 -25 11 0 20 7 20 15 0 11 11 15 41 15 22 0
39 -3 37 -7 -30 -59 -48 -107 -54 -141 -6 -38 -5 -42 15 -42 16 0 21 6 21 25
0 36 29 117 51 141 35 37 25 44 -66 44 -84 0 -85 0 -85 -25z"/>
<path d="M116 808 c-10 -16 -32 -45 -49 -64 l-30 -35 25 -27 c14 -15 36 -44
50 -65 l25 -37 28 42 c15 24 36 53 47 64 19 21 19 22 -30 87 l-49 65 -17 -30z"/>
<path d="M353 422 c-12 -21 -42 -64 -67 -94 -25 -31 -46 -59 -46 -63 0 -3 22
-32 48 -64 27 -31 59 -74 71 -95 l23 -37 36 53 c19 29 53 75 75 101 l40 48
-40 42 c-22 23 -55 66 -73 95 -18 28 -36 52 -39 52 -3 0 -16 -17 -28 -38z"/>
</g>
</svg>
