<?xml version="1.0" standalone="no"?>
<!DOCTYPE svg PUBLIC "-//W3C//DTD SVG 20010904//EN"
 "http://www.w3.org/TR/2001/REC-SVG-20010904/DTD/svg10.dtd">
<svg version="1.0" xmlns="http://www.w3.org/2000/svg"
 width="77.000000pt" height="115.000000pt" viewBox="0 0 77.000000 115.000000"
 preserveAspectRatio="xMidYMid meet">

<g transform="translate(0.000000,115.000000) scale(0.100000,-0.100000)"
fill="#000000" stroke="none">
<path d="M0 1139 c0 -5 5 -7 10 -4 5 3 10 8 10 11 0 2 -4 4 -10 4 -5 0 -10 -5
-10 -11z"/>
<path d="M740 1146 c0 -2 7 -6 15 -10 8 -3 15 -1 15 4 0 6 -7 10 -15 10 -8 0
-15 -2 -15 -4z"/>
<path d="M67 1082 c-20 -22 -22 -53 -5 -70 9 -9 9 -15 0 -24 -7 -7 -12 -24
-12 -39 0 -35 33 -59 81 -59 50 0 70 25 69 86 0 27 -1 60 0 73 0 38 -18 51
-70 51 -33 0 -52 -5 -63 -18z m100 -14 c20 -28 9 -43 -35 -46 -44 -3 -61 11
-48 43 7 18 70 20 83 3z m5 -83 c2 -3 3 -19 0 -35 -4 -29 -6 -31 -46 -28 -42
3 -55 20 -42 54 5 13 76 21 88 9z"/>
<path d="M116 808 c-10 -16 -32 -45 -48 -64 l-30 -34 30 -34 c16 -19 38 -48
47 -64 l18 -29 48 63 48 64 -48 64 -48 64 -17 -30z"/>
<path d="M357 428 c-10 -18 -41 -62 -70 -98 l-53 -65 53 -63 c30 -35 61 -79
70 -98 9 -19 19 -34 22 -34 3 1 19 21 34 46 16 24 49 69 73 98 l43 54 -37 43
c-21 24 -53 68 -72 97 -18 28 -36 52 -39 52 -4 0 -14 -15 -24 -32z"/>
</g>
</svg>
