<?xml version="1.0" standalone="no"?>
<!DOCTYPE svg PUBLIC "-//W3C//DTD SVG 20010904//EN"
 "http://www.w3.org/TR/2001/REC-SVG-20010904/DTD/svg10.dtd">
<svg version="1.0" xmlns="http://www.w3.org/2000/svg"
 width="77.000000pt" height="115.000000pt" viewBox="0 0 77.000000 115.000000"
 preserveAspectRatio="xMidYMid meet">

<g transform="translate(0.000000,115.000000) scale(0.100000,-0.100000)"
fill="#000000" stroke="none">
<path d="M0 1139 c0 -5 5 -7 10 -4 5 3 10 8 10 11 0 2 -4 4 -10 4 -5 0 -10 -5
-10 -11z"/>
<path d="M740 1146 c0 -2 7 -6 15 -10 8 -3 15 -1 15 4 0 6 -7 10 -15 10 -8 0
-15 -2 -15 -4z"/>
<path d="M62 1077 c-49 -52 -17 -107 62 -107 43 0 47 -2 44 -22 -2 -19 -10
-24 -42 -26 -22 -2 -42 2 -46 8 -4 7 -15 10 -24 8 -15 -3 -15 -5 4 -25 27 -30
87 -31 124 -2 23 18 26 27 26 84 0 59 -2 65 -29 84 -39 28 -92 27 -119 -2z
m106 -44 c2 -18 -2 -33 -7 -34 -72 -6 -76 -4 -79 35 l-3 37 43 -3 c40 -3 43
-5 46 -35z"/>
<path d="M116 809 c-10 -17 -31 -46 -47 -64 l-30 -33 49 -65 49 -64 18 29 c9
16 31 45 48 64 l30 35 -25 27 c-14 15 -36 44 -50 64 l-24 37 -18 -30z"/>
<path d="M352 423 c-11 -21 -43 -65 -70 -98 l-49 -61 44 -49 c24 -28 56 -71
71 -97 15 -27 29 -48 32 -48 3 1 18 22 35 48 16 26 49 70 71 98 l42 51 -34 39
c-19 22 -51 65 -71 97 -20 31 -39 57 -43 57 -3 0 -16 -17 -28 -37z"/>
<path d="M755 10 c-3 -5 -1 -10 4 -10 6 0 11 5 11 10 0 6 -2 10 -4 10 -3 0 -8
-4 -11 -10z"/>
</g>
</svg>
