<?xml version="1.0" standalone="no"?>
<!DOCTYPE svg PUBLIC "-//W3C//DTD SVG 20010904//EN"
 "http://www.w3.org/TR/2001/REC-SVG-20010904/DTD/svg10.dtd">
<svg version="1.0" xmlns="http://www.w3.org/2000/svg"
 width="77.000000pt" height="115.000000pt" viewBox="0 0 77.000000 115.000000"
 preserveAspectRatio="xMidYMid meet">

<g transform="translate(0.000000,115.000000) scale(0.100000,-0.100000)"
fill="#000000" stroke="none">
<path d="M740 1146 c0 -2 7 -9 15 -16 12 -10 15 -10 15 4 0 9 -7 16 -15 16 -8
0 -15 -2 -15 -4z"/>
<path d="M40 1090 c0 -5 5 -10 10 -10 6 0 10 -35 10 -85 0 -50 -4 -85 -10 -85
-5 0 -10 -4 -10 -10 0 -5 13 -10 29 -10 28 0 28 0 23 53 l-4 52 36 -34 c25
-24 34 -41 30 -53 -4 -15 1 -18 30 -18 20 0 36 5 36 10 0 6 -4 10 -9 10 -5 0
-28 23 -52 51 l-43 51 42 40 c23 21 42 41 42 43 0 3 -16 5 -36 5 -27 0 -35 -4
-31 -14 3 -8 -6 -24 -20 -37 l-26 -24 6 38 c6 36 5 37 -24 37 -16 0 -29 -4
-29 -10z"/>
<path d="M365 926 l7 -134 -26 -17 c-22 -15 -26 -25 -26 -66 0 -45 4 -52 61
-114 58 -62 92 -80 101 -53 3 8 9 4 17 -10 16 -30 64 -30 85 0 9 12 16 17 16
10 0 -26 39 -10 78 34 23 25 42 50 42 55 0 6 -16 30 -35 53 -35 43 -35 43 -35
144 0 56 4 104 10 107 6 3 10 33 10 66 0 51 -2 59 -19 59 -11 0 -22 -6 -25
-12 -5 -10 -7 -10 -12 0 -3 6 -12 12 -19 12 -7 0 -16 -6 -19 -12 -5 -10 -7
-10 -12 0 -3 6 -14 12 -24 12 -10 0 -21 -6 -24 -12 -5 -10 -7 -10 -12 0 -8 17
-24 15 -40 -5 -13 -17 -13 -17 -14 0 0 19 -40 25 -40 5 0 -9 -3 -9 -12 0 -7 7
-18 12 -26 12 -12 0 -13 -22 -7 -134z m41 94 c16 0 24 6 25 18 1 16 2 16 6 0
2 -10 13 -18 24 -18 11 0 19 7 20 18 1 16 2 16 6 0 5 -21 38 -24 47 -5 5 10 7
10 12 0 9 -20 44 -16 45 5 1 16 2 16 6 0 5 -21 39 -24 46 -5 3 7 6 5 6 -5 1
-12 -7 -18 -21 -19 -234 -8 -258 -5 -257 25 1 17 2 17 6 4 3 -11 14 -18 29
-18z m232 -107 c2 -8 -6 -13 -22 -13 -28 0 -33 -17 -16 -51 9 -16 7 -19 -10
-19 -19 0 -26 19 -21 58 3 18 -51 12 -57 -7 -3 -8 -1 -11 4 -8 5 3 18 -2 29
-10 15 -12 17 -16 6 -20 -7 -3 -22 -14 -32 -24 -11 -11 -21 -19 -24 -19 -3 0
-5 21 -5 47 0 67 19 85 89 81 32 -2 56 -8 59 -15z m2 -53 c0 -5 -4 -10 -10
-10 -5 0 -10 5 -10 10 0 6 5 10 10 10 6 0 10 -4 10 -10z m-36 -75 c4 -11 -1
-15 -19 -15 -14 0 -25 -5 -25 -10 0 -6 6 -10 13 -9 28 3 48 -2 42 -11 -9 -15
-43 -12 -70 6 -30 20 -32 34 -6 34 11 0 23 5 26 10 9 15 32 12 39 -5z m-138
-116 c16 -16 22 -28 14 -24 -13 5 -56 55 -47 55 2 0 16 -14 33 -31z m132 -29
c-7 -10 -14 -17 -17 -15 -4 4 18 35 25 35 2 0 -1 -9 -8 -20z m42 -13 c0 -2
-12 -14 -27 -28 l-28 -24 24 28 c23 25 31 32 31 24z m-76 -81 c-23 -31 -25
-31 -47 -1 -17 24 -17 26 0 49 l18 25 24 -24 c23 -23 23 -23 5 -49z"/>
<path d="M120 819 c-7 -13 -28 -43 -47 -67 l-35 -43 20 -22 c10 -12 32 -41 47
-65 l28 -42 25 37 c14 21 36 50 50 66 l26 27 -31 33 c-17 17 -40 47 -51 66
l-20 33 -12 -23z"/>
<path d="M359 438 c-7 -13 -38 -57 -69 -98 l-57 -76 34 -39 c19 -22 52 -66 73
-98 l39 -58 35 53 c19 29 52 73 73 97 l40 45 -49 60 c-27 34 -59 78 -70 99
-25 43 -33 45 -49 15z"/>
<path d="M755 10 c-3 -5 -1 -10 4 -10 6 0 11 5 11 10 0 6 -2 10 -4 10 -3 0 -8
-4 -11 -10z"/>
</g>
</svg>
