<?xml version="1.0" standalone="no"?>
<!DOCTYPE svg PUBLIC "-//W3C//DTD SVG 20010904//EN"
 "http://www.w3.org/TR/2001/REC-SVG-20010904/DTD/svg10.dtd">
<svg version="1.0" xmlns="http://www.w3.org/2000/svg"
 width="77.000000pt" height="115.000000pt" viewBox="0 0 77.000000 115.000000"
 preserveAspectRatio="xMidYMid meet">

<g transform="translate(0.000000,115.000000) scale(0.100000,-0.100000)"
fill="#000000" stroke="none">
<path d="M740 1146 c0 -2 7 -6 15 -10 8 -3 15 -1 15 4 0 6 -7 10 -15 10 -8 0
-15 -2 -15 -4z"/>
<path d="M40 995 c0 -98 1 -105 20 -105 19 0 20 7 20 105 0 98 -1 105 -20 105
-19 0 -20 -7 -20 -105z"/>
<path d="M110 1081 c-5 -11 -10 -51 -10 -89 0 -54 4 -72 18 -85 22 -20 73 -22
90 -5 16 16 16 170 0 186 -20 20 -86 15 -98 -7z m75 -86 c0 -73 -2 -80 -20
-80 -18 0 -20 8 -23 83 -3 82 -2 83 20 80 22 -3 23 -7 23 -83z"/>
<path d="M56 839 c-36 -28 -35 -74 5 -130 16 -24 40 -59 52 -76 12 -18 24 -33
27 -32 12 0 101 142 107 169 8 42 -19 80 -57 80 -17 0 -33 -7 -39 -17 -7 -12
-13 -14 -18 -7 -5 6 -18 16 -29 22 -18 10 -27 8 -48 -9z"/>
<path d="M264 460 c-52 -21 -70 -100 -38 -163 13 -24 124 -183 152 -217 2 -3
9 3 16 13 6 11 35 51 64 90 30 40 62 89 73 109 45 87 9 173 -71 173 -40 0 -56
-11 -75 -49 -4 -8 -6 -8 -10 0 -21 44 -69 62 -111 44z"/>
<path d="M755 10 c-3 -5 -1 -10 4 -10 6 0 11 5 11 10 0 6 -2 10 -4 10 -3 0 -8
-4 -11 -10z"/>
</g>
</svg>
