<?xml version="1.0" standalone="no"?>
<!DOCTYPE svg PUBLIC "-//W3C//DTD SVG 20010904//EN"
 "http://www.w3.org/TR/2001/REC-SVG-20010904/DTD/svg10.dtd">
<svg version="1.0" xmlns="http://www.w3.org/2000/svg"
 width="77.000000pt" height="115.000000pt" viewBox="0 0 77.000000 115.000000"
 preserveAspectRatio="xMidYMid meet">

<g transform="translate(0.000000,115.000000) scale(0.100000,-0.100000)"
fill="#000000" stroke="none">
<path d="M0 1139 c0 -5 5 -7 10 -4 5 3 10 8 10 11 0 2 -4 4 -10 4 -5 0 -10 -5
-10 -11z"/>
<path d="M755 1140 c3 -5 8 -10 11 -10 2 0 4 5 4 10 0 6 -5 10 -11 10 -5 0 -7
-4 -4 -10z"/>
<path d="M62 1088 c-16 -16 -15 -48 2 -48 7 0 16 9 19 20 4 16 14 20 50 20 31
0 47 -5 51 -15 6 -17 -5 -29 -79 -77 -41 -27 -51 -39 -53 -65 l-3 -33 85 0
c85 0 86 0 86 25 0 18 -5 25 -20 25 -11 0 -20 -4 -20 -10 0 -5 -22 -10 -50
-10 -28 0 -50 5 -50 10 0 6 29 29 65 52 72 46 86 69 59 99 -13 14 -30 19 -74
19 -31 0 -61 -5 -68 -12z"/>
<path d="M46 828 c-29 -41 -22 -62 51 -166 l45 -63 40 53 c54 73 68 101 68
142 0 53 -53 75 -93 39 -18 -17 -19 -17 -28 0 -14 25 -64 22 -83 -5z"/>
<path d="M258 453 c-27 -17 -48 -58 -48 -95 0 -30 44 -107 109 -193 34 -43 61
-84 61 -90 0 -5 8 2 18 17 9 14 43 62 75 107 97 135 108 193 46 245 -40 34
-74 33 -108 -3 l-26 -28 -27 28 c-29 33 -60 36 -100 12z"/>
</g>
</svg>
