<?xml version="1.0" standalone="no"?>
<!DOCTYPE svg PUBLIC "-//W3C//DTD SVG 20010904//EN"
 "http://www.w3.org/TR/2001/REC-SVG-20010904/DTD/svg10.dtd">
<svg version="1.0" xmlns="http://www.w3.org/2000/svg"
 width="77.000000pt" height="115.000000pt" viewBox="0 0 77.000000 115.000000"
 preserveAspectRatio="xMidYMid meet">

<g transform="translate(0.000000,115.000000) scale(0.100000,-0.100000)"
fill="#000000" stroke="none">
<path d="M0 1139 c0 -5 5 -7 10 -4 5 3 10 8 10 11 0 2 -4 4 -10 4 -5 0 -10 -5
-10 -11z"/>
<path d="M755 1140 c3 -5 8 -10 11 -10 2 0 4 5 4 10 0 6 -5 10 -11 10 -5 0 -7
-4 -4 -10z"/>
<path d="M60 1075 c0 -16 6 -25 15 -25 8 0 15 5 15 10 0 6 20 10 45 10 51 0
54 -4 24 -37 -24 -24 -25 -22 27 -38 10 -3 14 -14 12 -32 -3 -26 -7 -28 -55
-31 -43 -2 -53 0 -53 12 0 9 -7 16 -15 16 -24 0 -17 -28 11 -47 84 -55 196 44
119 105 l-24 19 24 23 c14 13 25 27 25 32 0 4 -38 8 -85 8 -84 0 -85 0 -85
-25z"/>
<path d="M44 825 c-27 -42 -13 -80 69 -187 l29 -37 35 46 c57 75 73 106 73
145 0 55 -52 78 -93 41 -18 -17 -19 -17 -28 0 -15 27 -65 22 -85 -8z"/>
<path d="M258 453 c-27 -17 -48 -58 -48 -95 0 -28 36 -95 94 -173 29 -38 58
-81 65 -94 l13 -23 16 25 c32 47 57 82 91 127 78 103 88 176 30 224 -40 34
-74 33 -108 -3 l-26 -28 -27 28 c-29 33 -60 36 -100 12z"/>
</g>
</svg>
