<?xml version="1.0" standalone="no"?>
<!DOCTYPE svg PUBLIC "-//W3C//DTD SVG 20010904//EN"
 "http://www.w3.org/TR/2001/REC-SVG-20010904/DTD/svg10.dtd">
<svg version="1.0" xmlns="http://www.w3.org/2000/svg"
 width="77.000000pt" height="115.000000pt" viewBox="0 0 77.000000 115.000000"
 preserveAspectRatio="xMidYMid meet">

<g transform="translate(0.000000,115.000000) scale(0.100000,-0.100000)"
fill="#000000" stroke="none">
<path d="M0 1139 c0 -5 5 -7 10 -4 5 3 10 8 10 11 0 2 -4 4 -10 4 -5 0 -10 -5
-10 -11z"/>
<path d="M755 1140 c3 -5 8 -10 11 -10 2 0 4 5 4 10 0 6 -5 10 -11 10 -5 0 -7
-4 -4 -10z"/>
<path d="M97 1042 c-73 -74 -74 -92 -7 -92 57 0 78 -22 45 -46 -17 -13 -14
-14 26 -13 24 0 38 3 32 6 -17 6 -17 53 0 53 8 0 14 7 14 15 0 8 -6 15 -14 15
-9 0 -13 17 -13 60 0 42 -4 60 -13 60 -7 0 -38 -26 -70 -58z m51 -29 c-2 -22
-9 -29 -30 -31 -33 -4 -34 1 -10 33 24 33 44 32 40 -2z"/>
<path d="M44 825 c-27 -42 -13 -80 69 -187 l29 -37 35 46 c56 73 73 106 73
140 0 57 -52 82 -93 46 -18 -17 -19 -17 -28 0 -15 27 -65 22 -85 -8z"/>
<path d="M261 456 c-13 -7 -30 -24 -37 -37 -30 -54 -10 -113 80 -234 29 -38
58 -80 65 -93 12 -22 13 -21 57 40 134 189 148 221 120 276 -34 65 -90 80
-135 34 l-28 -27 -25 27 c-28 30 -59 35 -97 14z"/>
<path d="M755 10 c-3 -5 -1 -10 4 -10 6 0 11 5 11 10 0 6 -2 10 -4 10 -3 0 -8
-4 -11 -10z"/>
</g>
</svg>
