<?xml version="1.0" standalone="no"?>
<!DOCTYPE svg PUBLIC "-//W3C//DTD SVG 20010904//EN"
 "http://www.w3.org/TR/2001/REC-SVG-20010904/DTD/svg10.dtd">
<svg version="1.0" xmlns="http://www.w3.org/2000/svg"
 width="77.000000pt" height="115.000000pt" viewBox="0 0 77.000000 115.000000"
 preserveAspectRatio="xMidYMid meet">

<g transform="translate(0.000000,115.000000) scale(0.100000,-0.100000)"
fill="#000000" stroke="none">
<path d="M0 1139 c0 -5 5 -7 10 -4 5 3 10 8 10 11 0 2 -4 4 -10 4 -5 0 -10 -5
-10 -11z"/>
<path d="M755 1140 c3 -5 8 -10 11 -10 2 0 4 5 4 10 0 6 -5 10 -11 10 -5 0 -7
-4 -4 -10z"/>
<path d="M50 1056 l0 -44 63 1 62 2 3 -42 3 -43 -46 0 c-31 0 -47 5 -51 15 -8
19 -34 20 -34 2 0 -26 39 -50 80 -50 53 0 80 25 80 73 0 50 -24 70 -84 70 -40
0 -47 3 -44 18 3 14 16 18 66 20 90 4 76 22 -18 22 l-80 0 0 -44z"/>
<path d="M44 825 c-24 -37 -11 -80 47 -158 l51 -67 43 58 c23 32 48 68 54 80
16 30 14 78 -5 96 -21 21 -70 20 -84 -1 -10 -17 -10 -17 -20 0 -17 26 -66 22
-86 -8z"/>
<path d="M261 456 c-30 -17 -50 -53 -51 -91 0 -37 26 -86 109 -203 l64 -90 44
62 c134 189 147 220 119 274 -34 65 -90 80 -135 34 l-28 -27 -25 27 c-28 30
-59 35 -97 14z"/>
<path d="M755 10 c-3 -5 -1 -10 4 -10 6 0 11 5 11 10 0 6 -2 10 -4 10 -3 0 -8
-4 -11 -10z"/>
</g>
</svg>
