<?xml version="1.0" standalone="no"?>
<!DOCTYPE svg PUBLIC "-//W3C//DTD SVG 20010904//EN"
 "http://www.w3.org/TR/2001/REC-SVG-20010904/DTD/svg10.dtd">
<svg version="1.0" xmlns="http://www.w3.org/2000/svg"
 width="77.000000pt" height="115.000000pt" viewBox="0 0 77.000000 115.000000"
 preserveAspectRatio="xMidYMid meet">

<g transform="translate(0.000000,115.000000) scale(0.100000,-0.100000)"
fill="#000000" stroke="none">
<path d="M755 1140 c3 -5 8 -10 11 -10 2 0 4 5 4 10 0 6 -5 10 -11 10 -5 0 -7
-4 -4 -10z"/>
<path d="M66 1084 c-11 -11 -16 -35 -16 -79 0 -53 4 -68 22 -85 12 -11 24 -20
27 -21 46 -6 68 -2 93 19 57 48 19 112 -66 112 -43 0 -47 2 -44 23 3 19 10 22
51 25 28 2 47 -1 47 -7 0 -6 10 -11 22 -11 20 0 21 1 3 20 -23 26 -115 28
-139 4z m114 -120 l0 -35 -47 3 c-37 2 -49 7 -51 21 -7 36 6 47 53 47 45 0 45
0 45 -36z"/>
<path d="M45 830 c-27 -30 -14 -79 42 -160 26 -38 50 -69 53 -70 3 0 15 15 27
33 12 17 36 52 52 76 34 49 40 100 15 125 -21 21 -70 20 -84 -1 -10 -17 -10
-17 -20 0 -15 23 -63 22 -85 -3z"/>
<path d="M259 455 c-34 -18 -53 -65 -46 -112 6 -33 27 -68 136 -224 l33 -48
40 57 c21 31 57 82 79 112 68 95 72 162 11 210 -34 28 -69 25 -101 -8 l-28
-27 -25 27 c-28 31 -59 35 -99 13z"/>
<path d="M755 10 c-3 -5 -1 -10 4 -10 6 0 11 5 11 10 0 6 -2 10 -4 10 -3 0 -8
-4 -11 -10z"/>
</g>
</svg>
