<?xml version="1.0" standalone="no"?>
<!DOCTYPE svg PUBLIC "-//W3C//DTD SVG 20010904//EN"
 "http://www.w3.org/TR/2001/REC-SVG-20010904/DTD/svg10.dtd">
<svg version="1.0" xmlns="http://www.w3.org/2000/svg"
 width="77.000000pt" height="115.000000pt" viewBox="0 0 77.000000 115.000000"
 preserveAspectRatio="xMidYMid meet">

<g transform="translate(0.000000,115.000000) scale(0.100000,-0.100000)"
fill="#000000" stroke="none">
<path d="M755 1140 c3 -5 8 -10 11 -10 2 0 4 5 4 10 0 6 -5 10 -11 10 -5 0 -7
-4 -4 -10z"/>
<path d="M40 1080 c0 -13 7 -20 20 -20 11 0 20 5 20 10 0 6 18 10 41 10 22 0
39 -3 37 -7 -53 -104 -67 -173 -35 -178 12 -2 17 3 17 19 0 40 29 122 50 141
40 36 26 45 -65 45 -78 0 -85 -2 -85 -20z"/>
<path d="M45 830 c-27 -30 -14 -79 42 -160 26 -38 50 -69 53 -70 3 0 15 15 27
33 12 17 36 52 52 76 34 49 40 100 15 125 -21 21 -70 20 -84 -1 -10 -17 -10
-17 -20 0 -15 23 -63 22 -85 -3z"/>
<path d="M259 455 c-34 -18 -53 -65 -46 -112 4 -20 28 -68 54 -106 26 -38 62
-89 78 -113 17 -24 33 -43 37 -41 7 2 57 68 124 166 47 67 59 128 33 170 -35
57 -85 66 -128 23 l-28 -27 -25 27 c-28 31 -59 35 -99 13z"/>
<path d="M755 10 c-3 -5 -1 -10 4 -10 6 0 11 5 11 10 0 6 -2 10 -4 10 -3 0 -8
-4 -11 -10z"/>
</g>
</svg>
