<?xml version="1.0" standalone="no"?>
<!DOCTYPE svg PUBLIC "-//W3C//DTD SVG 20010904//EN"
 "http://www.w3.org/TR/2001/REC-SVG-20010904/DTD/svg10.dtd">
<svg version="1.0" xmlns="http://www.w3.org/2000/svg"
 width="77.000000pt" height="115.000000pt" viewBox="0 0 77.000000 115.000000"
 preserveAspectRatio="xMidYMid meet">

<g transform="translate(0.000000,115.000000) scale(0.100000,-0.100000)"
fill="#000000" stroke="none">
<path d="M740 1146 c0 -2 7 -6 15 -10 8 -3 15 -1 15 4 0 6 -7 10 -15 10 -8 0
-15 -2 -15 -4z"/>
<path d="M68 1086 c-21 -15 -23 -39 -6 -66 10 -15 10 -22 0 -32 -20 -20 -14
-62 11 -77 26 -17 91 -18 111 -2 20 16 25 69 9 83 -8 7 -10 15 -4 22 16 19 17
52 2 69 -17 21 -98 23 -123 3z m102 -36 c0 -28 -2 -30 -40 -30 -42 0 -58 15
-46 45 3 10 19 15 46 15 38 0 40 -2 40 -30z m-4 -60 c6 -6 8 -24 6 -41 -4 -28
-7 -30 -46 -27 -34 2 -42 7 -44 26 -2 13 2 30 8 38 14 16 61 19 76 4z"/>
<path d="M45 830 c-27 -30 -14 -79 42 -160 26 -38 50 -69 53 -69 3 0 27 31 53
69 56 81 69 130 42 160 -22 25 -70 26 -85 3 -10 -17 -10 -17 -20 0 -15 23 -63
22 -85 -3z"/>
<path d="M261 456 c-30 -17 -50 -53 -50 -91 -1 -43 28 -99 98 -190 33 -44 61
-83 61 -87 0 -22 21 0 80 83 94 132 98 139 99 192 1 41 -4 53 -28 78 -16 16
-39 29 -50 29 -31 0 -70 -21 -76 -42 -7 -21 -25 -24 -25 -4 0 19 -39 46 -65
46 -11 -1 -31 -7 -44 -14z"/>
<path d="M755 10 c-3 -5 -1 -10 4 -10 6 0 11 5 11 10 0 6 -2 10 -4 10 -3 0 -8
-4 -11 -10z"/>
</g>
</svg>
