<?xml version="1.0" standalone="no"?>
<!DOCTYPE svg PUBLIC "-//W3C//DTD SVG 20010904//EN"
 "http://www.w3.org/TR/2001/REC-SVG-20010904/DTD/svg10.dtd">
<svg version="1.0" xmlns="http://www.w3.org/2000/svg"
 width="77.000000pt" height="115.000000pt" viewBox="0 0 77.000000 115.000000"
 preserveAspectRatio="xMidYMid meet">

<g transform="translate(0.000000,115.000000) scale(0.100000,-0.100000)"
fill="#000000" stroke="none">
<path d="M740 1146 c0 -2 7 -6 15 -10 8 -3 15 -1 15 4 0 6 -7 10 -15 10 -8 0
-15 -2 -15 -4z"/>
<path d="M62 1080 c-26 -24 -28 -57 -6 -88 12 -18 25 -22 65 -22 47 0 50 -2
47 -22 -2 -19 -10 -24 -45 -26 -26 -2 -43 1 -43 7 0 6 -10 11 -22 11 l-22 0
21 -21 c19 -19 44 -24 101 -20 6 1 21 10 32 21 30 30 29 129 -3 158 -31 29
-95 30 -125 2z m108 -45 c0 -35 0 -35 -45 -35 -45 0 -45 0 -45 35 0 35 0 35
45 35 45 0 45 0 45 -35z"/>
<path d="M47 832 c-30 -33 -21 -72 35 -154 29 -43 55 -78 58 -77 12 0 101 141
106 168 9 43 -17 81 -56 81 -17 0 -33 -7 -38 -17 -9 -16 -11 -16 -27 0 -22 22
-58 22 -78 -1z"/>
<path d="M239 441 c-23 -23 -29 -38 -29 -71 0 -51 21 -92 99 -195 34 -44 61
-84 61 -88 0 -5 4 -7 9 -5 12 4 133 173 154 215 36 70 10 154 -51 168 -37 8
-79 -9 -87 -34 -7 -24 -25 -28 -25 -7 0 21 -40 46 -73 46 -18 0 -39 -11 -58
-29z"/>
<path d="M755 10 c-3 -5 -1 -10 4 -10 6 0 11 5 11 10 0 6 -2 10 -4 10 -3 0 -8
-4 -11 -10z"/>
</g>
</svg>
