<?xml version="1.0" standalone="no"?>
<!DOCTYPE svg PUBLIC "-//W3C//DTD SVG 20010904//EN"
 "http://www.w3.org/TR/2001/REC-SVG-20010904/DTD/svg10.dtd">
<svg version="1.0" xmlns="http://www.w3.org/2000/svg"
 width="77.000000pt" height="115.000000pt" viewBox="0 0 77.000000 115.000000"
 preserveAspectRatio="xMidYMid meet">

<g transform="translate(0.000000,115.000000) scale(0.100000,-0.100000)"
fill="#000000" stroke="none">
<path d="M740 1146 c0 -2 7 -6 15 -10 8 -3 15 -1 15 4 0 6 -7 10 -15 10 -8 0
-15 -2 -15 -4z"/>
<path d="M84 1013 c-15 -48 -34 -93 -43 -100 -9 -7 -14 -13 -11 -13 3 -1 19
-3 37 -4 30 -3 32 -2 26 25 -5 28 -4 29 30 29 39 0 56 -15 38 -33 -18 -18 -13
-22 21 -20 45 2 45 2 26 16 -9 7 -28 52 -43 100 -17 56 -31 87 -40 87 -9 0
-24 -32 -41 -87z m56 -1 c0 -10 5 -23 12 -30 9 -9 3 -12 -27 -12 -30 0 -36 3
-27 12 7 7 12 20 12 30 0 10 7 18 15 18 8 0 15 -8 15 -18z"/>
<path d="M350 1060 c0 -11 -6 -30 -12 -41 -10 -17 -10 -23 0 -26 14 -6 16 -33
2 -33 -15 0 -12 -38 3 -43 9 -3 9 -8 -2 -21 -11 -13 -11 -22 -3 -39 5 -12 18
-43 29 -69 10 -27 24 -48 32 -48 12 0 12 3 3 12 -14 14 -16 28 -3 28 11 0 21
-35 12 -46 -3 -5 -19 -17 -36 -26 -21 -12 -31 -25 -33 -47 -4 -34 5 -38 34
-16 19 14 74 21 74 8 0 -3 -7 -14 -16 -24 -19 -21 -11 -39 17 -39 10 0 28 -9
39 -20 27 -27 52 -25 78 5 12 14 31 25 43 25 15 0 19 4 15 15 -3 8 -9 22 -12
30 -8 20 44 20 70 0 31 -23 46 -18 46 15 0 23 -7 32 -35 46 -38 18 -39 26 -9
88 8 16 14 37 14 48 0 10 7 18 15 18 8 0 15 4 15 9 0 5 -7 14 -15 21 -8 7 -15
16 -15 21 0 5 7 9 15 9 8 0 15 7 15 16 0 13 -3 14 -13 5 -11 -9 -14 -5 -15 19
0 20 4 30 14 30 19 0 18 19 -1 26 -9 4 -15 19 -15 35 0 35 -3 36 -44 4 -18
-14 -40 -25 -50 -25 -9 0 -25 -5 -36 -12 -26 -16 -37 -3 -17 20 28 31 21 42
-28 42 -49 0 -56 -11 -28 -42 20 -23 9 -36 -17 -20 -11 7 -27 12 -36 12 -10 0
-32 11 -50 25 -40 30 -44 31 -44 5z m210 -6 c0 -2 -17 -4 -37 -3 -29 0 -33 2
-18 8 18 7 55 4 55 -5z m-177 -7 c2 -6 28 -21 57 -31 40 -15 67 -17 118 -13
37 4 68 11 70 17 2 5 10 10 18 10 8 0 17 7 20 15 16 40 24 5 24 -98 0 -95 -3
-119 -21 -152 -12 -22 -18 -29 -14 -15 13 42 18 240 6 240 -5 0 -13 -4 -16
-10 -3 -5 -17 -10 -30 -10 -13 0 -26 -4 -29 -9 -7 -11 -115 -11 -122 0 -3 5
-16 9 -30 9 -13 0 -24 5 -24 10 0 6 -7 10 -16 10 -14 0 -16 -14 -13 -114 3
-90 2 -110 -8 -97 -15 19 -18 251 -4 251 5 0 11 -6 14 -13z m122 -97 c17 -19
17 -21 0 -40 -16 -18 -16 -20 -2 -20 19 0 21 -8 7 -30 -9 -13 -11 -13 -21 0
-8 12 -10 10 -5 -10 3 -17 -3 -34 -20 -54 -27 -31 -46 -28 -26 4 10 17 10 20
-3 20 -19 0 -19 9 1 31 9 10 17 37 19 61 1 24 3 46 4 51 2 14 28 7 46 -13z
m91 6 c17 -18 18 -33 2 -39 -7 -2 -10 -8 -6 -12 5 -5 17 2 28 15 11 13 23 20
27 16 4 -3 1 -12 -5 -18 -15 -15 -16 -42 -2 -33 6 4 10 -5 10 -19 0 -14 -4
-26 -10 -26 -5 0 -10 9 -10 19 0 11 -5 23 -11 26 -18 12 -19 0 -3 -30 10 -19
11 -31 5 -33 -6 -2 -8 -14 -5 -28 8 -31 -1 -30 -31 4 -16 18 -22 35 -19 52 2
14 1 19 -2 12 -5 -10 -9 -10 -20 -1 -19 16 -18 29 3 29 16 0 16 1 1 16 -16 16
-15 19 0 40 20 27 28 29 48 10z m-169 -32 c13 -13 14 -20 5 -35 -7 -10 -12
-26 -12 -34 0 -8 -4 -15 -10 -15 -15 0 -12 47 3 53 10 4 10 7 0 18 -26 27 -12
39 14 13z m53 -144 c0 -5 -4 -10 -10 -10 -5 0 -10 5 -10 10 0 6 5 10 10 10 6
0 10 -4 10 -10z m110 0 c0 -5 -4 -10 -10 -10 -5 0 -10 5 -10 10 0 6 5 10 10
10 6 0 10 -4 10 -10z m-2 -49 c9 -5 36 -15 60 -22 23 -7 41 -17 39 -22 -3 -11
-73 -14 -84 -4 -9 10 -151 9 -157 -1 -3 -5 -19 -7 -36 -4 -44 6 -38 31 10 38
22 4 43 11 46 15 7 12 99 12 122 0z m-223 -50 c3 -5 1 -12 -5 -16 -5 -3 -10 1
-10 9 0 18 6 21 15 7z m355 -6 c0 -8 -4 -15 -10 -15 -5 0 -10 7 -10 15 0 8 5
15 10 15 6 0 10 -7 10 -15z m-184 -31 c-8 -20 4 -17 31 8 19 17 23 19 17 5 -3
-9 -10 -17 -15 -17 -23 0 -6 -20 19 -21 l27 -2 -27 -4 c-16 -2 -28 -9 -28 -15
0 -7 -5 -6 -14 1 -12 10 -13 9 -9 -7 2 -11 0 -23 -6 -26 -11 -7 -15 6 -12 33
2 7 -1 11 -6 8 -4 -3 -26 -1 -48 3 -40 8 -40 8 -7 9 30 1 33 4 27 24 -5 19 -4
20 5 5 6 -10 16 -18 21 -18 6 0 7 5 4 10 -3 6 -3 15 0 20 9 15 27 1 21 -16z"/>
<path d="M57 844 c-15 -8 -28 -21 -28 -29 -1 -8 -2 -21 -3 -27 -3 -18 21 -64
68 -131 l41 -58 23 28 c41 50 83 117 89 142 14 58 -55 104 -97 66 -12 -11 -20
-13 -25 -6 -14 24 -40 29 -68 15z"/>
<path d="M239 441 c-24 -25 -29 -38 -29 -78 0 -43 7 -58 60 -133 33 -47 70
-100 81 -117 19 -31 39 -43 39 -25 0 4 27 43 60 86 81 107 104 157 97 207 -6
48 -28 76 -66 84 -36 8 -82 -10 -88 -35 -7 -26 -20 -26 -28 1 -7 21 -42 39
-76 39 -11 0 -34 -13 -50 -29z"/>
<path d="M755 10 c-3 -5 -1 -10 4 -10 6 0 11 5 11 10 0 6 -2 10 -4 10 -3 0 -8
-4 -11 -10z"/>
</g>
</svg>
