<?xml version="1.0" standalone="no"?>
<!DOCTYPE svg PUBLIC "-//W3C//DTD SVG 20010904//EN"
 "http://www.w3.org/TR/2001/REC-SVG-20010904/DTD/svg10.dtd">
<svg version="1.0" xmlns="http://www.w3.org/2000/svg"
 width="77.000000pt" height="115.000000pt" viewBox="0 0 77.000000 115.000000"
 preserveAspectRatio="xMidYMid meet">

<g transform="translate(0.000000,115.000000) scale(0.100000,-0.100000)"
fill="#000000" stroke="none">
<path d="M740 1146 c0 -2 7 -6 15 -10 8 -3 15 -1 15 4 0 6 -7 10 -15 10 -8 0
-15 -2 -15 -4z"/>
<path d="M61 1084 c-31 -40 -29 -123 4 -162 25 -30 63 -37 93 -18 7 4 19 2 28
-5 11 -9 18 -9 26 -1 9 9 8 12 -3 12 -13 0 -15 12 -11 73 4 63 1 75 -18 100
-30 38 -90 38 -119 1z m99 -69 c0 -65 -6 -75 -28 -53 -9 9 -15 9 -24 0 -9 -9
-8 -12 5 -12 9 0 17 -4 17 -10 0 -5 -11 -10 -25 -10 -24 0 -25 2 -25 75 l0 75
40 0 40 0 0 -65z"/>
<path d="M491 1068 c-16 -16 -25 -19 -28 -10 -3 6 -13 12 -23 12 -15 0 -18
-11 -22 -75 -3 -41 -10 -80 -15 -87 -6 -7 -16 -38 -23 -68 -7 -30 -16 -59 -20
-65 -10 -14 -30 -99 -30 -129 0 -14 14 -41 31 -61 l31 -35 112 0 112 0 47 48
47 48 0 91 c0 85 -3 97 -35 160 -27 52 -35 80 -35 121 0 54 -14 68 -42 38 -10
-11 -16 -9 -31 10 -23 30 -46 30 -76 2z m-21 -38 c11 0 24 8 29 18 10 16 10
16 11 0 0 -11 8 -18 20 -18 12 0 20 7 20 18 1 16 1 16 11 0 5 -10 18 -18 29
-18 10 0 21 8 23 18 4 13 5 11 6 -5 1 -22 -2 -23 -89 -23 -87 0 -90 1 -89 23
1 16 2 18 6 5 2 -10 13 -18 23 -18z m104 -79 c16 -17 16 -19 -4 -24 -23 -6
-27 -27 -5 -27 8 0 15 5 15 11 0 8 5 8 15 -1 9 -7 14 -26 13 -43 -3 -32 -47
-87 -71 -87 -18 0 -67 55 -67 75 0 24 12 45 25 45 7 0 18 6 24 14 9 11 7 15
-10 19 -19 5 -20 8 -9 21 17 22 53 20 74 -3z m-74 -176 c10 -12 10 -15 -4 -15
-9 0 -16 7 -16 15 0 8 2 15 4 15 2 0 9 -7 16 -15z m90 0 c0 -8 -7 -15 -15 -15
-13 0 -14 3 -3 15 16 18 18 18 18 0z m-33 -47 c10 -8 9 -14 -4 -26 -14 -15
-17 -14 -32 4 -13 16 -23 18 -48 13 -31 -6 -41 -1 -26 14 10 10 96 6 110 -5z
m74 -4 c11 -13 9 -14 -17 -8 -40 9 -54 24 -22 24 14 0 31 -7 39 -16z m-81 -64
c-6 -11 -16 -20 -22 -20 -6 0 -3 9 7 20 10 11 20 20 22 20 2 0 -1 -9 -7 -20z
m-40 -30 c0 -5 -5 -12 -11 -16 -14 -8 -33 11 -25 25 7 11 36 4 36 -9z m63 -4
c4 -10 1 -13 -9 -9 -15 6 -19 23 -5 23 5 0 11 -7 14 -14z m-27 -17 c10 -17
-13 -36 -27 -22 -12 12 -4 33 11 33 5 0 12 -5 16 -11z m71 -10 c2 -17 -1 -18
-13 -8 -13 11 -10 20 11 29 1 0 1 -9 2 -21z m-112 -22 c6 -5 3 -7 -7 -3 -10 3
-18 1 -18 -5 0 -6 -4 -7 -10 -4 -6 4 -5 11 3 20 6 7 14 10 17 7 3 -4 10 -11
15 -15z m87 -12 c-3 -5 -7 -4 -10 3 -3 10 -7 10 -18 1 -17 -14 -19 -3 -2 15
14 14 40 -2 30 -19z m-144 4 c3 -12 2 -12 -6 0 -6 8 -15 10 -22 6 -9 -5 -11
-4 -6 4 10 15 28 10 34 -10z"/>
<path d="M528 863 c7 -3 16 -2 19 1 4 3 -2 6 -13 5 -11 0 -14 -3 -6 -6z"/>
<path d="M490 836 c0 -2 7 -6 15 -10 8 -3 15 -1 15 4 0 6 -7 10 -15 10 -8 0
-15 -2 -15 -4z"/>
<path d="M550 830 c0 -5 4 -10 9 -10 6 0 13 5 16 10 3 6 -1 10 -9 10 -9 0 -16
-4 -16 -10z"/>
<path d="M56 839 c-39 -31 -35 -74 14 -145 53 -78 69 -98 73 -93 27 31 99 148
104 167 14 58 -54 106 -97 67 -12 -11 -20 -13 -25 -6 -16 27 -43 31 -69 10z"/>
<path d="M239 441 c-39 -40 -40 -98 -1 -162 33 -56 135 -198 142 -198 8 0 113
148 143 202 46 85 28 166 -41 182 -37 8 -83 -10 -89 -35 -7 -26 -20 -26 -28 1
-7 21 -42 39 -76 39 -11 0 -34 -13 -50 -29z"/>
<path d="M755 10 c-3 -5 -1 -10 4 -10 6 0 11 5 11 10 0 6 -2 10 -4 10 -3 0 -8
-4 -11 -10z"/>
</g>
</svg>
