<?xml version="1.0" standalone="no"?>
<!DOCTYPE svg PUBLIC "-//W3C//DTD SVG 20010904//EN"
 "http://www.w3.org/TR/2001/REC-SVG-20010904/DTD/svg10.dtd">
<svg version="1.0" xmlns="http://www.w3.org/2000/svg"
 width="77.000000pt" height="115.000000pt" viewBox="0 0 77.000000 115.000000"
 preserveAspectRatio="xMidYMid meet">

<g transform="translate(0.000000,115.000000) scale(0.100000,-0.100000)"
fill="#000000" stroke="none">
<path d="M740 1146 c0 -2 7 -6 15 -10 8 -3 15 -1 15 4 0 6 -7 10 -15 10 -8 0
-15 -2 -15 -4z"/>
<path d="M48 1088 c15 -15 16 -164 2 -173 -19 -12 -10 -22 18 -22 28 0 29 1
24 49 -2 26 -2 48 2 48 15 0 65 -66 61 -80 -4 -11 4 -15 30 -15 19 0 35 2 35
5 0 3 -22 28 -50 55 -27 27 -50 52 -50 55 0 3 17 24 39 48 l39 42 -35 0 c-22
0 -32 -4 -28 -11 7 -11 -22 -49 -38 -49 -5 0 -7 14 -5 30 4 28 2 30 -26 30
-23 0 -27 -3 -18 -12z"/>
<path d="M365 931 l7 -139 -26 -17 c-22 -14 -26 -25 -26 -62 0 -41 6 -52 61
-114 56 -63 99 -88 99 -57 0 6 10 2 23 -10 13 -12 29 -22 37 -22 8 0 24 10 37
22 13 12 23 16 23 10 0 -7 8 -12 18 -12 19 0 102 89 102 109 0 6 -16 28 -35
50 l-35 38 0 100 c0 56 5 104 11 110 5 5 9 37 7 69 -2 47 -7 59 -20 62 -11 2
-18 -3 -18 -12 0 -9 -4 -16 -10 -16 -5 0 -10 7 -10 15 0 20 -20 19 -36 -2 -13
-17 -13 -17 -14 0 0 21 -40 24 -40 2 0 -8 -4 -15 -10 -15 -5 0 -10 7 -10 15 0
8 -7 15 -15 15 -8 0 -15 -7 -15 -15 0 -8 -4 -15 -10 -15 -5 0 -10 7 -10 15 0
22 -40 19 -40 -2 -1 -17 -1 -17 -14 0 -7 9 -19 17 -26 17 -10 0 -11 -31 -5
-139z m35 89 c11 0 24 8 29 18 10 16 10 16 11 0 0 -11 8 -18 20 -18 12 0 20 7
21 18 1 16 2 16 6 0 2 -10 13 -18 24 -18 11 0 19 7 19 18 1 16 1 16 11 0 5
-10 19 -18 29 -18 12 0 20 7 21 18 1 16 2 16 6 0 2 -10 13 -18 23 -18 10 0 21
8 23 18 4 13 5 11 6 -5 1 -23 0 -23 -139 -23 -139 0 -140 0 -139 23 1 16 2 18
6 5 2 -10 13 -18 23 -18z m238 -109 c3 -10 -1 -12 -17 -8 -28 7 -38 -15 -23
-49 9 -19 9 -24 -3 -24 -14 0 -32 43 -27 68 4 16 -33 16 -47 -1 -8 -11 -5 -17
16 -26 l26 -12 -32 -30 c-18 -16 -34 -29 -37 -29 -2 0 -4 21 -4 47 0 67 19 85
89 81 36 -2 56 -8 59 -17z m2 -51 c0 -5 -4 -10 -10 -10 -5 0 -10 5 -10 10 0 6
5 10 10 10 6 0 10 -4 10 -10z m-56 -88 c-13 -2 -24 -8 -24 -13 0 -6 4 -7 10
-4 5 3 18 1 27 -4 15 -9 14 -10 -10 -11 -32 0 -67 16 -67 30 0 6 8 10 18 10 9
0 26 7 37 16 18 13 20 13 26 -3 5 -14 0 -19 -17 -21z m-108 -114 l29 -33 -32
29 c-31 28 -38 36 -30 36 2 0 16 -15 33 -32z m-58 -3 c-3 -3 -9 2 -12 12 -6
14 -5 15 5 6 7 -7 10 -15 7 -18z m192 2 c0 -2 -12 -14 -27 -28 l-28 -24 24 28
c23 25 31 32 31 24z m-46 -63 c18 -26 18 -26 -3 -47 l-21 -21 -21 21 c-21 21
-21 21 -3 47 11 14 21 25 24 25 3 0 13 -11 24 -25z m37 -7 c-10 -9 -11 -8 -5
6 3 10 9 15 12 12 3 -3 0 -11 -7 -18z"/>
<path d="M56 839 c-46 -36 -35 -84 42 -187 l39 -52 40 52 c74 98 86 135 57
176 -18 26 -65 30 -84 7 -11 -13 -15 -13 -29 -2 -30 26 -39 27 -65 6z"/>
<path d="M239 441 c-55 -55 -39 -121 63 -258 29 -40 58 -80 64 -90 7 -10 13
-16 16 -13 39 48 125 172 144 208 43 79 21 162 -45 177 -36 8 -82 -10 -88 -35
-7 -26 -20 -26 -28 1 -7 21 -42 39 -76 39 -11 0 -34 -13 -50 -29z"/>
<path d="M755 10 c-3 -5 -1 -10 4 -10 6 0 11 5 11 10 0 6 -2 10 -4 10 -3 0 -8
-4 -11 -10z"/>
</g>
</svg>
